<svg width="32" height="24" viewBox="0 0 32 24" fill="none" xmlns="http://www.w3.org/2000/svg">
<mask id="mask0_37_2890" style="mask-type:luminance" maskUnits="userSpaceOnUse" x="0" y="0" width="32" height="24">
<rect width="32" height="24" fill="white"/>
</mask>
<g mask="url(#mask0_37_2890)">
<path fill-rule="evenodd" clip-rule="evenodd" d="M0 0V24H32V0H0Z" fill="#F7FCFF"/>
<mask id="mask1_37_2890" style="mask-type:luminance" maskUnits="userSpaceOnUse" x="0" y="0" width="32" height="24">
<path fill-rule="evenodd" clip-rule="evenodd" d="M0 0V24H32V0H0Z" fill="white"/>
</mask>
<g mask="url(#mask1_37_2890)">
<path fill-rule="evenodd" clip-rule="evenodd" d="M16.0002 18.2194C19.2029 18.2194 21.7993 15.4621 21.7993 12.0609C21.7993 8.65961 19.2029 5.90234 16.0002 5.90234C12.7975 5.90234 10.2012 8.65961 10.2012 12.0609C10.2012 15.4621 12.7975 18.2194 16.0002 18.2194Z" fill="#3D58DB"/>
<mask id="mask2_37_2890" style="mask-type:luminance" maskUnits="userSpaceOnUse" x="10" y="5" width="12" height="14">
<path fill-rule="evenodd" clip-rule="evenodd" d="M16.0002 18.2194C19.2029 18.2194 21.7993 15.4621 21.7993 12.0609C21.7993 8.65961 19.2029 5.90234 16.0002 5.90234C12.7975 5.90234 10.2012 8.65961 10.2012 12.0609C10.2012 15.4621 12.7975 18.2194 16.0002 18.2194Z" fill="white"/>
</mask>
<g mask="url(#mask2_37_2890)">
<path fill-rule="evenodd" clip-rule="evenodd" d="M22.0019 12.5335C22.0019 12.5335 21.6764 9.62954 19.2657 9.47189C16.8551 9.31425 16.2051 11.6015 16.066 12.2074C15.9269 12.8134 15.5748 14.4299 13.0366 14.4299C10.4985 14.4299 10.2695 10.3195 10.2695 10.3195V5.47266H22.0019V12.5335Z" fill="#E31D1C"/>
</g>
<path fill-rule="evenodd" clip-rule="evenodd" d="M7.29983 2.05273L8.21479 2.88026L3.97453 7.83216L3.05957 7.00464L7.29983 2.05273ZM8.80896 3.39258L9.72393 4.2201L5.63567 9.10027L4.7207 8.27274L8.80896 3.39258ZM11.2255 5.57557L10.3106 4.74805L6.21094 9.66525L7.1259 10.4928L11.2255 5.57557Z" fill="#272727"/>
<path fill-rule="evenodd" clip-rule="evenodd" d="M25.3647 1.70508L24.4496 2.52951L26.037 4.39234L26.9521 3.56791L25.3647 1.70508ZM28.186 5.13086L27.2709 5.95529L28.8583 7.81812L29.7734 6.99369L28.186 5.13086ZM21.4291 5.2131L22.3442 4.38867L23.9316 6.25151L23.0165 7.07594L21.4291 5.2131ZM25.1655 7.81445L24.2504 8.63888L25.8378 10.5017L26.7529 9.67729L25.1655 7.81445ZM22.9963 3.83029L23.9115 3.00586L28.3301 8.38672L27.4149 9.21115L22.9963 3.83029Z" fill="#272727"/>
<path fill-rule="evenodd" clip-rule="evenodd" d="M26.0559 14.2437L25.133 13.416L23.5322 15.2861L24.4551 16.1138L26.0559 14.2437ZM23.3645 17.5347L22.4416 16.707L20.8408 18.5771L21.7637 19.4048L23.3645 17.5347ZM28.0471 16.0332L28.9699 16.8608L27.3691 18.731L26.4463 17.9033L28.0471 16.0332ZM26.4104 20.228L25.4875 19.4004L23.8867 21.2705L24.8096 22.0981L26.4104 20.228ZM23.9678 17.9785L24.8907 18.8062L23.2197 20.8031L22.2969 19.9755L23.9678 17.9785ZM27.6319 15.478L26.709 14.6504L25.0381 16.6473L25.9609 17.475L27.6319 15.478Z" fill="#272727"/>
<path fill-rule="evenodd" clip-rule="evenodd" d="M6.40743 14.8898L7.32263 14.0645L11.4072 18.7449L10.492 19.5702L6.40743 14.8898ZM7.36046 18.9835L8.27567 18.1582L10.001 20.0538L9.08577 20.8791L7.36046 18.9835ZM4.31022 16.6914L3.39501 17.5167L7.50081 22.2601L8.41602 21.4348L4.31022 16.6914ZM4.96119 16.1515L5.8764 15.3262L7.37207 17.08L6.45686 17.9054L4.96119 16.1515Z" fill="#272727"/>
</g>
</g>
</svg>
