<svg width="45" height="44" viewBox="0 0 45 44" fill="none" xmlns="http://www.w3.org/2000/svg">
<path fill-rule="evenodd" clip-rule="evenodd" d="M24.4966 2.06836C24.4966 0.96379 23.6012 0.0683594 22.4966 0.0683594C21.392 0.0683594 20.4966 0.96379 20.4966 2.06836V19.9986H2.56836C1.46379 19.9986 0.568359 20.894 0.568359 21.9986C0.568359 23.1031 1.46379 23.9986 2.56836 23.9986H20.4966V41.9305C20.4966 43.035 21.392 43.9305 22.4966 43.9305C23.6012 43.9305 24.4966 43.035 24.4966 41.9305V23.9986H42.4305C43.535 23.9986 44.4305 23.1031 44.4305 21.9986C44.4305 20.894 43.535 19.9986 42.4305 19.9986H24.4966V2.06836Z" fill="#2A5591"/>
</svg>
