<svg width="143" height="142" viewBox="0 0 143 142" fill="none" xmlns="http://www.w3.org/2000/svg">
<circle cx="71.5" cy="71" r="65.5" stroke="#FF0000" stroke-width="11"/>
<path d="M39.0605 95V87.384H49.2365V57.432H40.6605V51.608C45.3965 50.712 48.6605 49.496 51.6685 47.576H58.6445V87.384H67.5405V95H39.0605ZM82.7 62.552C82.7 68.12 85.324 70.744 89.42 70.744C92.044 70.744 95.052 69.272 97.228 65.624C96.396 57.048 93.132 53.848 89.1 53.848C85.58 53.848 82.7 56.728 82.7 62.552ZM87.82 95.896C81.932 95.896 77.644 93.4 74.828 90.52L79.82 84.824C81.548 86.744 84.428 88.216 87.244 88.216C92.556 88.216 96.908 84.184 97.356 72.344C94.86 75.544 90.828 77.464 87.628 77.464C79.756 77.464 74.06 72.6 74.06 62.552C74.06 52.824 80.844 46.744 88.972 46.744C97.932 46.744 105.996 53.784 105.996 70.232C105.996 88.152 97.228 95.896 87.82 95.896Z" fill="black"/>
</svg>
