<svg width="20" height="20" viewBox="0 0 20 20" fill="none" xmlns="http://www.w3.org/2000/svg">
<path d="M5.63315 18.3366H14.3665C16.6665 18.3366 17.5831 16.9283 17.6915 15.2116L18.1248 8.32825C18.2415 6.52825 16.8081 5.00326 14.9998 5.00326C14.4915 5.00326 14.0248 4.71159 13.7915 4.26159L13.1915 3.05326C12.8081 2.29492 11.8081 1.66992 10.9581 1.66992H9.04981C8.19148 1.66992 7.19148 2.29492 6.80815 3.05326L6.20815 4.26159C5.97481 4.71159 5.50815 5.00326 4.99981 5.00326C3.19148 5.00326 1.75815 6.52825 1.87481 8.32825L2.30815 15.2116C2.40815 16.9283 3.33315 18.3366 5.63315 18.3366Z" stroke="#2B83FE" stroke-linecap="round" stroke-linejoin="round"/>
<path d="M8.75 6.66992H11.25" stroke="#2B83FE" stroke-linecap="round" stroke-linejoin="round"/>
<path d="M10.0003 14.9967C11.492 14.9967 12.7087 13.7801 12.7087 12.2884C12.7087 10.7967 11.492 9.58008 10.0003 9.58008C8.50866 9.58008 7.29199 10.7967 7.29199 12.2884C7.29199 13.7801 8.50866 14.9967 10.0003 14.9967Z" stroke="#2B83FE" stroke-linecap="round" stroke-linejoin="round"/>
</svg>
