<svg width="18" height="16" viewBox="0 0 18 16" fill="none" xmlns="http://www.w3.org/2000/svg">
<path fill-rule="evenodd" clip-rule="evenodd" d="M7 16H11C13.8089 16 15.2134 16 16.2223 15.3463C16.659 15.0633 17.034 14.6997 17.3259 14.2762C18 13.2978 18 11.9359 18 9.21212C18 6.48832 18 5.12641 17.3259 4.14809C17.034 3.72457 16.659 3.36093 16.2223 3.07794C15.574 2.6579 14.7624 2.50776 13.5198 2.45409C12.9268 2.45409 12.4163 2.01838 12.3 1.45455C12.1256 0.608789 11.3598 0 10.4703 0H7.52971C6.64025 0 5.87444 0.60879 5.7 1.45455C5.58371 2.01838 5.07317 2.45409 4.4802 2.45409C3.2376 2.50776 2.426 2.6579 1.77772 3.07794C1.34096 3.36093 0.965956 3.72457 0.674122 4.14809C0 5.12641 0 6.48832 0 9.21212C0 11.9359 0 13.2978 0.674122 14.2762C0.965956 14.6997 1.34096 15.0633 1.77772 15.3463C2.78661 16 4.19108 16 7 16ZM9 5.57576C6.92893 5.57576 5.25 7.20381 5.25 9.21212C5.25 11.2204 6.92893 12.8485 9 12.8485C11.0711 12.8485 12.75 11.2204 12.75 9.21212C12.75 7.20381 11.0711 5.57576 9 5.57576ZM9 7.0303C7.75736 7.0303 6.75 8.00714 6.75 9.21212C6.75 10.4171 7.75736 11.3939 9 11.3939C10.2426 11.3939 11.25 10.4171 11.25 9.21212C11.25 8.00714 10.2426 7.0303 9 7.0303ZM13.25 6.30303C13.25 5.90137 13.5858 5.57576 14 5.57576H15C15.4142 5.57576 15.75 5.90137 15.75 6.30303C15.75 6.70469 15.4142 7.0303 15 7.0303H14C13.5858 7.0303 13.25 6.70469 13.25 6.30303Z" fill="#4F545C"/>
</svg>
