<svg width="20" height="21" viewBox="0 0 20 21" fill="none" xmlns="http://www.w3.org/2000/svg">
<path d="M16.0293 1.18282L19.3181 4.47178C20.2273 5.38091 20.2273 6.85491 19.3181 7.76404L16.6442 10.4376C17.7647 10.6056 18.6239 11.5723 18.6239 12.7397V18.1716C18.6239 19.4573 17.5816 20.4996 16.2959 20.4996H2.32798C1.04227 20.4996 0 19.4573 0 18.1716V4.20368C0 2.91798 1.04227 1.8757 2.32798 1.8757H7.75995C8.92798 1.8757 9.89518 2.73598 10.0624 3.8575L12.737 1.18282C13.6461 0.273695 15.1201 0.273695 16.0293 1.18282ZM1.55199 18.1716C1.55199 18.6002 1.89942 18.9476 2.32798 18.9476L8.53491 18.9469L8.53594 11.9637L1.55199 11.963V18.1716ZM10.0869 18.9469L16.2959 18.9476C16.7244 18.9476 17.0719 18.6002 17.0719 18.1716V12.7397C17.0719 12.311 16.7244 11.9637 16.2959 11.9637L10.0869 11.963V18.9469ZM7.75995 3.42769H2.32798C1.89942 3.42769 1.55199 3.77512 1.55199 4.20368V10.411H8.53594V4.20368C8.53594 3.77512 8.18851 3.42769 7.75995 3.42769ZM10.0879 8.40371V10.4117L12.0952 10.411L10.0879 8.40371ZM13.8343 2.28024L10.5455 5.5692C10.2424 5.87224 10.2424 6.36357 10.5455 6.66662L13.8343 9.95551C14.1374 10.2586 14.6287 10.2586 14.9318 9.95551L18.2208 6.66662C18.5238 6.36357 18.5238 5.87224 18.2208 5.5692L14.9318 2.28024C14.6287 1.9772 14.1374 1.9772 13.8343 2.28024Z" fill="#556374"/>
</svg>
