<svg width="24" height="24" viewBox="0 0 24 24" fill="none" xmlns="http://www.w3.org/2000/svg">
<rect width="24" height="24" rx="12" fill="#A1A1AA"/>
<path fill-rule="evenodd" clip-rule="evenodd" d="M6.23124 16.6522C5.92292 16.9605 5.92292 17.4604 6.23124 17.7688C6.53956 18.0771 7.03945 18.0771 7.34778 17.7688L11.9996 13.1169L16.6522 17.7695C16.9605 18.0778 17.4604 18.0778 17.7688 17.7695C18.0771 17.4612 18.0771 16.9613 17.7688 16.653L13.1162 12.0004L17.7688 7.34778C18.0771 7.03945 18.0771 6.53956 17.7688 6.23124C17.4604 5.92292 16.9605 5.92292 16.6522 6.23124L11.9996 10.8838L7.34778 6.23199C7.03945 5.92366 6.53956 5.92366 6.23124 6.23199C5.92292 6.54031 5.92292 7.0402 6.23124 7.34852L10.8831 12.0004L6.23124 16.6522Z" fill="white"/>
</svg>
