<svg width="46" height="38" viewBox="0 0 46 38" fill="none" xmlns="http://www.w3.org/2000/svg">
<path d="M37.8212 9.99924C36.4146 6.66198 33.9869 3.89298 30.9102 2.11655C27.8336 0.340118 24.2776 -0.345746 20.7873 0.16406C17.297 0.673867 14.0649 2.35122 11.5862 4.93908C9.10747 7.52695 7.51898 10.8826 7.06409 14.4917C4.86916 15.0344 2.9437 16.3905 1.65336 18.3025C0.363028 20.2144 -0.202317 22.549 0.0646887 24.863C0.331695 27.1769 1.41246 29.3091 3.10173 30.8545C4.79101 32.3999 6.97115 33.251 9.22814 33.2461C9.83872 33.2461 10.4243 32.9956 10.856 32.5499C11.2878 32.1041 11.5303 31.4995 11.5303 30.8691C11.5303 30.2387 11.2878 29.6341 10.856 29.1883C10.4243 28.7425 9.83872 28.4921 9.22814 28.4921C8.00699 28.4921 6.83585 27.9912 5.97237 27.0997C5.10888 26.2082 4.62378 24.999 4.62378 23.7382C4.62378 22.4773 5.10888 21.2681 5.97237 20.3766C6.83585 19.4851 8.00699 18.9842 9.22814 18.9842C9.83872 18.9842 10.4243 18.7338 10.856 18.288C11.2878 17.8422 11.5303 17.2376 11.5303 16.6072C11.5362 13.7959 12.5071 11.0778 14.2705 8.93575C16.034 6.79369 18.4758 5.36641 21.1621 4.90747C23.8484 4.44853 26.6053 4.98765 28.943 6.42905C31.2808 7.87045 33.0479 10.1208 33.9305 12.7803C34.0621 13.1888 34.2987 13.5527 34.615 13.8331C34.9312 14.1136 35.3153 14.3002 35.7262 14.3729C37.2597 14.6721 38.6497 15.4986 39.6699 16.7178C40.6902 17.9371 41.2804 19.4771 41.3445 21.087C41.4086 22.6969 40.9427 24.2817 40.0228 25.5832C39.1029 26.8848 37.7832 27.8263 36.2788 28.2544C35.6865 28.412 35.1791 28.8061 34.8683 29.3499C34.5574 29.8938 34.4686 30.5428 34.6212 31.1543C34.7738 31.7658 35.1555 32.2897 35.6822 32.6106C36.209 32.9316 36.8376 33.0233 37.4299 32.8657C39.8527 32.2047 42.0003 30.7454 43.5468 28.7095C45.0932 26.6736 45.9539 24.1722 45.9982 21.5853C46.0425 18.9983 45.2679 16.4671 43.7921 14.376C42.3163 12.2849 40.2199 10.7482 37.8212 9.99924ZM24.6758 14.9196C24.4568 14.7032 24.1987 14.5335 23.9161 14.4204C23.3556 14.1827 22.7269 14.1827 22.1664 14.4204C21.8838 14.5335 21.6256 14.7032 21.4067 14.9196L14.5001 22.0505C14.0666 22.4981 13.8231 23.1052 13.8231 23.7382C13.8231 24.3711 14.0666 24.9782 14.5001 25.4258C14.9336 25.8734 15.5216 26.1249 16.1347 26.1249C16.7478 26.1249 17.3357 25.8734 17.7692 25.4258L20.739 22.3357V35.623C20.739 36.2534 20.9816 36.858 21.4133 37.3038C21.8451 37.7496 22.4307 38 23.0412 38C23.6518 38 24.2374 37.7496 24.6691 37.3038C25.1009 36.858 25.3434 36.2534 25.3434 35.623V22.3357L28.3132 25.4258C28.5272 25.6486 28.7819 25.8254 29.0624 25.9461C29.343 26.0668 29.6439 26.1289 29.9478 26.1289C30.2517 26.1289 30.5526 26.0668 30.8331 25.9461C31.1137 25.8254 31.3683 25.6486 31.5823 25.4258C31.7981 25.2048 31.9694 24.9419 32.0863 24.6523C32.2031 24.3626 32.2633 24.0519 32.2633 23.7382C32.2633 23.4244 32.2031 23.1137 32.0863 22.824C31.9694 22.5344 31.7981 22.2715 31.5823 22.0505L24.6758 14.9196Z" fill="#2A85FF"/>
</svg>
