<svg width="36" height="37" viewBox="0 0 36 37" fill="none" xmlns="http://www.w3.org/2000/svg">
<path d="M10.5 33.0459C10.5 33.5982 10.9477 34.0459 11.5 34.0459C12.0523 34.0459 12.5 33.5982 12.5 33.0459H10.5ZM11.5 20.0024V19.0024H10.5V20.0024H11.5ZM24.5 20.0024V21.0024H25.5V20.0024H24.5ZM25.2071 6.24699C24.8166 5.85647 24.1834 5.85647 23.7929 6.24699L17.4289 12.611C17.0384 13.0015 17.0384 13.6346 17.4289 14.0252C17.8195 14.4157 18.4526 14.4157 18.8431 14.0252L24.5 8.36832L30.1569 14.0252C30.5474 14.4157 31.1805 14.4157 31.5711 14.0252C31.9616 13.6346 31.9616 13.0015 31.5711 12.611L25.2071 6.24699ZM12.5 33.0459V20.0024H10.5V33.0459H12.5ZM11.5 21.0024H24.5V19.0024H11.5V21.0024ZM25.5 20.0024V6.9541H23.5V20.0024H25.5Z" fill="#39424E"/>
</svg>
