<svg width="32" height="32" viewBox="0 0 32 32" fill="none" xmlns="http://www.w3.org/2000/svg">
<path d="M28.7072 14.4938L26.6805 12.4672C26.3338 12.1205 26.0538 11.4405 26.0538 10.9605V8.08049C26.0538 6.90716 25.0938 5.94716 23.9205 5.94716H21.0538C20.5738 5.94716 19.8938 5.66716 19.5472 5.32049L17.5205 3.29383C16.6938 2.46716 15.3338 2.46716 14.5072 3.29383L12.4538 5.32049C12.1205 5.66716 11.4405 5.94716 10.9472 5.94716H8.08049C6.90716 5.94716 5.94716 6.90716 5.94716 8.08049V10.9472C5.94716 11.4272 5.66716 12.1072 5.32049 12.4538L3.29383 14.4805C2.46716 15.3072 2.46716 16.6672 3.29383 17.4938L5.32049 19.5205C5.66716 19.8672 5.94716 20.5472 5.94716 21.0272V23.8938C5.94716 25.0672 6.90716 26.0272 8.08049 26.0272H10.9472C11.4272 26.0272 12.1072 26.3072 12.4538 26.6538L14.4805 28.6805C15.3072 29.5072 16.6672 29.5072 17.4938 28.6805L19.5205 26.6538C19.8672 26.3072 20.5472 26.0272 21.0272 26.0272H23.8938C25.0672 26.0272 26.0272 25.0672 26.0272 23.8938V21.0272C26.0272 20.5472 26.3072 19.8672 26.6538 19.5205L28.6805 17.4938C29.5472 16.6805 29.5472 15.3205 28.7072 14.4938ZM10.6672 12.0005C10.6672 11.2672 11.2672 10.6672 12.0005 10.6672C12.7338 10.6672 13.3338 11.2672 13.3338 12.0005C13.3338 12.7338 12.7472 13.3338 12.0005 13.3338C11.2672 13.3338 10.6672 12.7338 10.6672 12.0005ZM12.7072 20.7072C12.5072 20.9072 12.2538 21.0005 12.0005 21.0005C11.7472 21.0005 11.4938 20.9072 11.2938 20.7072C10.9072 20.3205 10.9072 19.6805 11.2938 19.2938L19.2938 11.2938C19.6805 10.9072 20.3205 10.9072 20.7072 11.2938C21.0938 11.6805 21.0938 12.3205 20.7072 12.7072L12.7072 20.7072ZM20.0005 21.3338C19.2538 21.3338 18.6538 20.7338 18.6538 20.0005C18.6538 19.2672 19.2538 18.6672 19.9872 18.6672C20.7205 18.6672 21.3205 19.2672 21.3205 20.0005C21.3205 20.7338 20.7338 21.3338 20.0005 21.3338Z" fill="white"/>
</svg>
