<svg width="28" height="31" viewBox="0 0 28 31" fill="none" xmlns="http://www.w3.org/2000/svg">
<g filter="url(#filter0_d_2274_13992)">
<path fill-rule="evenodd" clip-rule="evenodd" d="M14.4382 21.2216C14.2931 21.2682 14.1345 21.2569 13.9998 21.192C13.8523 21.1209 13.7548 20.9968 13.7197 20.8618L13.244 19.0279C13.0777 18.3866 12.8354 17.768 12.5235 17.184C12.0392 16.2773 11.3063 15.58 10.6265 14.9942L9.18773 13.7544C8.96475 13.5622 8.8474 13.2742 8.87282 12.9802L9.68498 3.58754C9.72601 3.11303 10.1224 2.75 10.5963 2.75H15.245C18.3813 2.75 21.0238 4.93226 21.5306 7.86285L22.2361 11.9426C22.3332 12.5041 21.9014 13.0158 21.3348 13.0158H16.1537C15.1766 13.0158 14.4344 13.8924 14.5921 14.8553L15.2548 18.8998C15.3456 19.4539 15.3197 20.0208 15.1787 20.5642C15.1072 20.8399 14.8896 21.0766 14.5832 21.175L14.4382 21.2216L14.6676 21.9356L14.4382 21.2216ZM13.3486 22.5433C13.8312 22.7758 14.3873 22.8135 14.897 22.6497L15.042 22.6031L14.8126 21.8891L15.042 22.6031C15.819 22.3535 16.4252 21.7328 16.6307 20.9408C16.8241 20.1952 16.8596 19.4174 16.7351 18.6573L16.0724 14.6128C16.0639 14.561 16.1038 14.5158 16.1537 14.5158H21.3348C22.8341 14.5158 23.9695 13.1635 23.7142 11.687L23.0087 7.60725C22.3708 3.91896 19.0712 1.25 15.245 1.25H10.5963C9.3427 1.25 8.29852 2.20975 8.19056 3.45832L7.3784 12.851C7.31149 13.6247 7.62022 14.3837 8.20855 14.8907L9.64729 16.1305C10.3025 16.6951 10.854 17.2423 11.2004 17.8908C11.457 18.3711 11.6557 18.8789 11.7921 19.4046L12.2678 21.2384C12.417 21.8137 12.8166 22.2869 13.3486 22.5433ZM4.96767 14.5151C5.36893 14.5324 5.71261 14.2306 5.74721 13.8304L6.71881 2.59389C6.78122 1.8721 6.21268 1.25 5.48671 1.25C4.80289 1.25 4.25 1.80474 4.25 2.48726V13.7658C4.25 14.1674 4.5664 14.4978 4.96767 14.5151Z" fill="#272B30"/>
</g>
<defs>
<filter id="filter0_d_2274_13992" x="-2" y="0" width="32" height="32" filterUnits="userSpaceOnUse" color-interpolation-filters="sRGB">
<feFlood flood-opacity="0" result="BackgroundImageFix"/>
<feColorMatrix in="SourceAlpha" type="matrix" values="0 0 0 0 0 0 0 0 0 0 0 0 0 0 0 0 0 0 127 0" result="hardAlpha"/>
<feOffset dy="4"/>
<feGaussianBlur stdDeviation="2"/>
<feComposite in2="hardAlpha" operator="out"/>
<feColorMatrix type="matrix" values="0 0 0 0 0 0 0 0 0 0 0 0 0 0 0 0 0 0 0.25 0"/>
<feBlend mode="normal" in2="BackgroundImageFix" result="effect1_dropShadow_2274_13992"/>
<feBlend mode="normal" in="SourceGraphic" in2="effect1_dropShadow_2274_13992" result="shape"/>
</filter>
</defs>
</svg>
