<svg width="8" height="36" viewBox="0 0 8 36" fill="none" xmlns="http://www.w3.org/2000/svg">
<path d="M4.35355 0.646447C4.15829 0.451184 3.84171 0.451184 3.64645 0.646447L0.464466 3.82843C0.269204 4.02369 0.269204 4.34027 0.464466 4.53553C0.659728 4.7308 0.976311 4.7308 1.17157 4.53553L4 1.70711L6.82843 4.53553C7.02369 4.7308 7.34027 4.7308 7.53553 4.53553C7.7308 4.34027 7.7308 4.02369 7.53553 3.82843L4.35355 0.646447ZM3.64645 35.3536C3.84171 35.5488 4.15829 35.5488 4.35355 35.3536L7.53553 32.1716C7.73079 31.9763 7.73079 31.6597 7.53553 31.4645C7.34027 31.2692 7.02369 31.2692 6.82843 31.4645L4 34.2929L1.17157 31.4645C0.976309 31.2692 0.659727 31.2692 0.464465 31.4645C0.269203 31.6597 0.269203 31.9763 0.464465 32.1716L3.64645 35.3536ZM3.5 1L3.5 35L4.5 35L4.5 1L3.5 1Z" fill="#D8D8D8"/>
</svg>
