<svg width="20" height="21" viewBox="0 0 20 21" fill="none" xmlns="http://www.w3.org/2000/svg">
<g id="duplicate">
<path id="Vector" d="M7.25 13.75H5.625C5.19402 13.75 4.7807 13.5788 4.47595 13.274C4.1712 12.9693 4 12.556 4 12.125V5.625C4 5.19402 4.1712 4.7807 4.47595 4.47595C4.7807 4.1712 5.19402 4 5.625 4H12.125C12.556 4 12.9693 4.1712 13.274 4.47595C13.5788 4.7807 13.75 5.19402 13.75 5.625V7.25M8.875 17H15.375C15.806 17 16.2193 16.8288 16.524 16.524C16.8288 16.2193 17 15.806 17 15.375V8.875C17 8.44402 16.8288 8.0307 16.524 7.72595C16.2193 7.42121 15.806 7.25 15.375 7.25H8.875C8.44402 7.25 8.0307 7.42121 7.72595 7.72595C7.42121 8.0307 7.25 8.44402 7.25 8.875V15.375C7.25 15.806 7.42121 16.2193 7.72595 16.524C8.0307 16.8288 8.44402 17 8.875 17Z" stroke="#1FA990" stroke-linecap="round" stroke-linejoin="round"/>
</g>
</svg>
