<svg width="9" height="13" viewBox="0 0 9 13" fill="none" xmlns="http://www.w3.org/2000/svg">
<g id="Group">
<path id="Vector" d="M0.276628 0.722752C0.0921581 0.871088 -5.0063e-07 1.04692 -4.91749e-07 1.2501L-3.2786e-08 11.7499C-2.39015e-08 11.9532 0.0921586 12.1289 0.276629 12.2774C0.461303 12.4258 0.679638 12.5 0.932041 12.5C1.18439 12.5 1.40273 12.4258 1.58725 12.2774L8.11062 7.02743C8.29509 6.8788 8.38745 6.70309 8.38745 6.5C8.38745 6.29691 8.29509 6.12103 8.11062 5.97269L1.5872 0.722752C1.40273 0.574455 1.18439 0.5 0.931989 0.5C0.679637 0.5 0.461302 0.574455 0.276628 0.722752Z" fill="#AEB3B7"/>
</g>
</svg>
