<svg width="32" height="32" viewBox="0 0 32 32" fill="none" xmlns="http://www.w3.org/2000/svg">
<g id="vuesax/linear/gallery">
<g id="gallery">
<path id="Vector" d="M12 29.3337H20C26.6667 29.3337 29.3333 26.667 29.3333 20.0003V12.0003C29.3333 5.33366 26.6667 2.66699 20 2.66699H12C5.33334 2.66699 2.66667 5.33366 2.66667 12.0003V20.0003C2.66667 26.667 5.33334 29.3337 12 29.3337Z" stroke="white" stroke-width="2" stroke-linecap="round" stroke-linejoin="round"/>
<path id="Vector_2" d="M12 13.3333C13.4728 13.3333 14.6667 12.1394 14.6667 10.6667C14.6667 9.19391 13.4728 8 12 8C10.5272 8 9.33333 9.19391 9.33333 10.6667C9.33333 12.1394 10.5272 13.3333 12 13.3333Z" stroke="white" stroke-width="2" stroke-linecap="round" stroke-linejoin="round"/>
<path id="Vector_3" d="M3.56 25.2671L10.1333 20.8537C11.1867 20.1471 12.7067 20.2271 13.6533 21.0404L14.0933 21.4271C15.1333 22.3204 16.8133 22.3204 17.8533 21.4271L23.4 16.6671C24.44 15.7737 26.12 15.7737 27.16 16.6671L29.3333 18.5337" stroke="white" stroke-width="2" stroke-linecap="round" stroke-linejoin="round"/>
</g>
</g>
</svg>
