<svg width="61" height="60" viewBox="0 0 61 60" fill="none" xmlns="http://www.w3.org/2000/svg">
<path d="M30.5 0.25C46.9305 0.25 60.25 13.5695 60.25 30C60.25 46.4305 46.9305 59.75 30.5 59.75C14.0695 59.75 0.75 46.4305 0.75 30C0.75 13.5695 14.0695 0.25 30.5 0.25Z" fill="white" stroke="#E4E4E7" stroke-width="0.5"/>
<path fill-rule="evenodd" clip-rule="evenodd" d="M49.5914 30.4427C49.5914 29.06 49.4673 27.7305 49.2368 26.4541H30.8713V33.9971H41.3659C40.9139 36.4346 39.54 38.4998 37.4748 39.8825V44.7753H43.7768C47.4641 41.3805 49.5914 36.3814 49.5914 30.4427Z" fill="#4285F4"/>
<path fill-rule="evenodd" clip-rule="evenodd" d="M30.871 49.4999C36.136 49.4999 40.5501 47.7537 43.7765 44.7755L37.4744 39.8828C35.7283 41.0528 33.4947 41.7442 30.871 41.7442C25.7921 41.7442 21.4933 38.3139 19.9599 33.7048H13.4451V38.7571C16.6537 45.1301 23.2483 49.4999 30.871 49.4999Z" fill="#34A853"/>
<path fill-rule="evenodd" clip-rule="evenodd" d="M19.9602 33.7045C19.5702 32.5345 19.3486 31.2847 19.3486 29.9995C19.3486 28.7143 19.5702 27.4645 19.9602 26.2945V21.2422H13.4454C12.1247 23.8747 11.3713 26.8529 11.3713 29.9995C11.3713 33.1461 12.1247 36.1243 13.4454 38.7568L19.9602 33.7045Z" fill="#FBBC05"/>
<path fill-rule="evenodd" clip-rule="evenodd" d="M30.871 18.2557C33.734 18.2557 36.3044 19.2396 38.3254 21.1718L43.9183 15.5789C40.5413 12.4323 36.1272 10.5 30.871 10.5C23.2483 10.5 16.6537 14.8698 13.4451 21.2428L19.9599 26.295C21.4933 21.6859 25.7921 18.2557 30.871 18.2557Z" fill="#EA4335"/>
</svg>
