<svg width="33" height="32" viewBox="0 0 33 32" fill="none" xmlns="http://www.w3.org/2000/svg">
<path d="M4.95673 10.3709C5.25826 9.64297 5.70023 8.98153 6.25738 8.42438C6.81454 7.86722 7.47598 7.42525 8.20393 7.12372C8.93189 6.82219 9.71211 6.66699 10.5001 6.66699C11.288 6.66699 12.0682 6.82219 12.7962 7.12372C13.5241 7.42525 14.1856 7.86722 14.7427 8.42438L16.5001 10.1817L18.2574 8.42438C19.3826 7.29915 20.9087 6.66701 22.5001 6.66701C24.0914 6.66701 25.6175 7.29915 26.7427 8.42438C27.8679 9.5496 28.5001 11.0757 28.5001 12.667C28.5001 14.2584 27.8679 15.7845 26.7427 16.9097L16.5001 27.1524L6.25738 16.9097C5.70023 16.3526 5.25826 15.6911 4.95673 14.9632C4.6552 14.2352 4.5 13.455 4.5 12.667C4.5 11.8791 4.6552 11.0989 4.95673 10.3709Z" fill="#FE4747"/>
</svg>
