<svg width="36" height="37" viewBox="0 0 36 37" fill="none" xmlns="http://www.w3.org/2000/svg">
<path d="M5.01382 12.1669C5.35305 11.348 5.85025 10.6039 6.47706 9.97706C7.10385 9.35025 7.84797 8.85305 8.66693 8.51382C9.48588 8.1746 10.3636 8 11.2501 8C12.1365 8 13.0142 8.1746 13.8332 8.51382C14.6521 8.85305 15.3963 9.35025 16.0231 9.97706L18.0001 11.9541L19.9771 9.97706C21.2429 8.71118 22.9598 8.00002 24.7501 8.00002C26.5403 8.00002 28.2572 8.71118 29.5231 9.97706C30.7889 11.2429 31.5001 12.9598 31.5001 14.7501C31.5001 16.5403 30.7889 18.2572 29.5231 19.5231L18.0001 31.0461L6.47706 19.5231C5.85025 18.8963 5.35305 18.1521 5.01382 17.3332C4.6746 16.5142 4.5 15.6365 4.5 14.7501C4.5 13.8636 4.6746 12.9859 5.01382 12.1669Z" stroke="#39424E" stroke-width="2" stroke-linecap="round" stroke-linejoin="round"/>
</svg>
