<svg width="58" height="58" viewBox="0 0 58 58" fill="none" xmlns="http://www.w3.org/2000/svg">
<circle cx="29" cy="29" r="29" fill="url(#paint0_linear_2025_13185)"/>
<path d="M22.0883 24.4123C22.016 24.3189 21.9377 24.2298 21.8539 24.1457C21.5417 23.8326 21.1606 23.5967 20.741 23.4568L19.3632 23.0094C19.257 22.972 19.165 22.9025 19.1 22.8107C19.0349 22.7188 19 22.6091 19 22.4966C19 22.384 19.0349 22.2743 19.1 22.1824C19.165 22.0906 19.257 22.0212 19.3632 21.9837L20.741 21.5363C21.1547 21.3935 21.5299 21.1571 21.837 20.8454C22.1357 20.5422 22.3623 20.176 22.5 19.7737L22.5114 19.7396L22.9592 18.3629C22.9967 18.2568 23.0662 18.1649 23.1581 18.0999C23.25 18.0349 23.3598 18 23.4724 18C23.585 18 23.6949 18.0349 23.7868 18.0999C23.8787 18.1649 23.9482 18.2568 23.9857 18.3629L24.4335 19.7396C24.5727 20.1582 24.8077 20.5385 25.1199 20.8504C25.432 21.1623 25.8126 21.3972 26.2315 21.5363L27.6093 21.9837L27.6368 21.9906C27.743 22.028 27.835 22.0975 27.9 22.1893C27.9651 22.2812 28 22.3909 28 22.5034C28 22.616 27.9651 22.7257 27.9 22.8176C27.835 22.9094 27.743 22.9788 27.6368 23.0163L26.259 23.4637C25.8402 23.6028 25.4595 23.8377 25.1474 24.1496C24.8353 24.4615 24.6002 24.8418 24.461 25.2604L24.0132 26.6371C24.0092 26.6486 24.0048 26.6598 24 26.6709C23.9605 26.7627 23.8964 26.8421 23.8144 26.9001C23.7224 26.9651 23.6126 27 23.5 27C23.3874 27 23.2776 26.9651 23.1856 26.9001C23.0937 26.8351 23.0242 26.7432 22.9868 26.6371L22.539 25.2604C22.4378 24.9533 22.2851 24.6666 22.0883 24.4123ZM29.7829 28.2132L29.0175 27.9646C28.7848 27.8873 28.5733 27.7568 28.3999 27.5836C28.2265 27.4103 28.0959 27.199 28.0186 26.9665L27.7698 26.2016C27.749 26.1427 27.7104 26.0916 27.6593 26.0555C27.6083 26.0194 27.5472 26 27.4847 26C27.4221 26 27.3611 26.0194 27.31 26.0555C27.259 26.0916 27.2204 26.1427 27.1996 26.2016L26.9508 26.9665C26.875 27.1974 26.7467 27.4076 26.5761 27.5808C26.4055 27.7539 26.1971 27.8853 25.9672 27.9646L25.2018 28.2132C25.1428 28.234 25.0917 28.2725 25.0555 28.3236C25.0194 28.3746 25 28.4356 25 28.4981C25 28.5606 25.0194 28.6216 25.0555 28.6726C25.0917 28.7236 25.1428 28.7622 25.2018 28.783L25.9672 29.0316C26.2003 29.1093 26.412 29.2403 26.5855 29.4143C26.7589 29.5882 26.8893 29.8003 26.9661 30.0335L27.2149 30.7984C27.2357 30.8573 27.2743 30.9084 27.3253 30.9445C27.3764 30.9806 27.4374 31 27.5 31C27.5626 31 27.6236 30.9806 27.6747 30.9445C27.7257 30.9084 27.7643 30.8573 27.7851 30.7984L28.0339 30.0335C28.1113 29.801 28.2418 29.5897 28.4152 29.4164C28.5886 29.2432 28.8001 29.1127 29.0328 29.0354L29.7982 28.7868C29.8572 28.766 29.9083 28.7275 29.9445 28.6764C29.9806 28.6254 30 28.5644 30 28.5019C30 28.4394 29.9806 28.3784 29.9445 28.3274C29.9083 28.2764 29.8572 28.2378 29.7982 28.217L29.7829 28.2132ZM34.9518 22.1082L29.8641 27.1966L29.33 26.999C29.2466 26.9755 29.1708 26.9307 29.11 26.869C29.0572 26.8049 29.0196 26.7297 29 26.649L28.8243 26.115L33.8911 21.0476C35.2885 19.65 37.5543 19.65 38.9519 21.0475C40.3493 22.4449 40.3493 24.7105 38.952 26.108L38.0601 27C39.3242 28.2697 39.3224 30.3236 38.055 31.5911L36.2715 33.3745C35.9786 33.6674 35.5038 33.6674 35.2109 33.3745C34.918 33.0816 34.918 32.6067 35.2109 32.3138L36.9943 30.5304C37.676 29.8488 37.6777 28.7446 36.9995 28.0608L27.0019 38.0595C26.5955 38.466 26.0842 38.7517 25.525 38.8849L20.9237 39.9804C20.6704 40.0407 20.4039 39.9653 20.2197 39.7811C20.0355 39.597 19.9601 39.3304 20.0204 39.0771L21.116 34.4756C21.2491 33.9166 21.5347 33.4054 21.941 32.9991L25.0812 29.8585L25.62 30.029C25.701 30.0623 25.7755 30.1097 25.84 30.169C25.9038 30.2339 25.9517 30.3126 25.98 30.399L26.1437 30.9174L23.0017 34.0597C22.7917 34.2698 22.644 34.534 22.5752 34.8231L21.7619 38.2389L25.1775 37.4257C25.4667 37.3568 25.731 37.2091 25.9412 36.9989L37.8913 25.0474C38.7029 24.2357 38.7028 22.9198 37.8912 22.1082C37.0795 21.2964 35.7634 21.2965 34.9518 22.1082Z" fill="white"/>
<defs>
<linearGradient id="paint0_linear_2025_13185" x1="49" y1="46" x2="12.5" y2="12" gradientUnits="userSpaceOnUse">
<stop/>
<stop offset="1" stop-color="#444444"/>
</linearGradient>
</defs>
</svg>
