<svg width="21" height="20" viewBox="0 0 21 20" fill="none" xmlns="http://www.w3.org/2000/svg">
<path d="M13.3164 10.959H11.5081C10.0247 10.959 8.81641 9.75898 8.81641 8.26732V6.45898C8.81641 6.11732 8.54141 5.83398 8.19141 5.83398H5.54974C3.62474 5.83398 2.06641 7.08398 2.06641 9.31732V14.8507C2.06641 17.084 3.62474 18.334 5.54974 18.334H10.4581C12.3831 18.334 13.9414 17.084 13.9414 14.8507V11.584C13.9414 11.234 13.6581 10.959 13.3164 10.959Z" fill="#18181B"/>
<path d="M15.2505 1.66602H13.6089H12.7005H10.3422C8.45885 1.66602 6.93385 2.86602 6.86719 5.00768C6.91719 5.00768 6.95885 4.99935 7.00885 4.99935H9.36719H10.2755H11.9172C13.8422 4.99935 15.4005 6.24935 15.4005 8.48268V10.1243V12.3827V14.0243C15.4005 14.0743 15.3922 14.116 15.3922 14.1577C17.2505 14.0993 18.7339 12.866 18.7339 10.691V9.04935V6.79102V5.14935C18.7339 2.91602 17.1755 1.66602 15.2505 1.66602Z" fill="#18181B"/>
<path d="M10.3836 5.9591C10.1253 5.70077 9.68359 5.87577 9.68359 6.2341V8.41744C9.68359 9.3341 10.4586 10.0841 11.4086 10.0841C12.0003 10.0924 12.8253 10.0924 13.5336 10.0924C13.8919 10.0924 14.0753 9.67577 13.8253 9.42577C12.9169 8.51744 11.3003 6.89244 10.3836 5.9591Z" fill="#18181B"/>
</svg>
