<svg width="21" height="20" viewBox="0 0 21 20" fill="none" xmlns="http://www.w3.org/2000/svg">
<path d="M18.0996 18.334H3.09961C2.75794 18.334 2.47461 18.0507 2.47461 17.709C2.47461 17.3673 2.75794 17.084 3.09961 17.084H18.0996C18.4413 17.084 18.7246 17.3673 18.7246 17.709C18.7246 18.0507 18.4413 18.334 18.0996 18.334Z" fill="#18181B"/>
<path d="M16.4491 2.90005C14.8324 1.28338 13.2491 1.24172 11.5908 2.90005L10.5824 3.90838C10.4991 3.99172 10.4658 4.12505 10.4991 4.24172C11.1324 6.45005 12.8991 8.21672 15.1074 8.85005C15.1408 8.85838 15.1741 8.86672 15.2074 8.86672C15.2991 8.86672 15.3824 8.83338 15.4491 8.76672L16.4491 7.75838C17.2741 6.94172 17.6741 6.15005 17.6741 5.35005C17.6824 4.52505 17.2824 3.72505 16.4491 2.90005Z" fill="#18181B"/>
<path d="M13.6085 9.60768C13.3669 9.49101 13.1335 9.37435 12.9085 9.24102C12.7252 9.13268 12.5502 9.01602 12.3752 8.89102C12.2335 8.79935 12.0669 8.66602 11.9085 8.53268C11.8919 8.52435 11.8335 8.47435 11.7669 8.40768C11.4919 8.17435 11.1835 7.87435 10.9085 7.54102C10.8835 7.52435 10.8419 7.46602 10.7835 7.39102C10.7002 7.29102 10.5585 7.12435 10.4335 6.93268C10.3335 6.80768 10.2169 6.62435 10.1085 6.44102C9.9752 6.21602 9.85853 5.99102 9.74187 5.75768C9.5889 5.4299 9.15869 5.33253 8.90292 5.5883L4.21687 10.2743C4.10853 10.3827 4.00853 10.591 3.98353 10.7327L3.53353 13.9243C3.4502 14.491 3.60853 15.0243 3.95853 15.3827C4.25853 15.6743 4.6752 15.8327 5.1252 15.8327C5.2252 15.8327 5.3252 15.8243 5.4252 15.8077L8.6252 15.3577C8.7752 15.3327 8.98353 15.2327 9.08353 15.1243L13.7773 10.4306C14.028 10.1799 13.9338 9.74863 13.6085 9.60768Z" fill="#18181B"/>
</svg>
