<svg width="80" height="135" viewBox="0 0 80 135" fill="none" xmlns="http://www.w3.org/2000/svg">
<circle cx="17.3716" cy="132.549" r="2.18412" transform="rotate(-90 17.3716 132.549)" fill="white" fill-opacity="0.3"/>
<circle cx="37.4654" cy="132.549" r="2.18412" transform="rotate(-90 37.4654 132.549)" fill="white" fill-opacity="0.3"/>
<circle cx="57.5601" cy="132.549" r="2.18412" transform="rotate(-90 57.5601 132.549)" fill="white" fill-opacity="0.3"/>
<circle cx="77.6538" cy="132.549" r="2.18412" transform="rotate(-90 77.6538 132.549)" fill="white" fill-opacity="0.3"/>
<circle cx="17.3716" cy="110.707" r="2.18412" transform="rotate(-90 17.3716 110.707)" fill="white" fill-opacity="0.3"/>
<circle cx="37.4654" cy="110.707" r="2.18412" transform="rotate(-90 37.4654 110.707)" fill="white" fill-opacity="0.3"/>
<circle cx="57.5601" cy="110.707" r="2.18412" transform="rotate(-90 57.5601 110.707)" fill="white" fill-opacity="0.3"/>
<circle cx="77.6538" cy="110.707" r="2.18412" transform="rotate(-90 77.6538 110.707)" fill="white" fill-opacity="0.3"/>
<circle cx="17.3716" cy="88.8667" r="2.18412" transform="rotate(-90 17.3716 88.8667)" fill="white" fill-opacity="0.3"/>
<circle cx="37.4654" cy="88.8667" r="2.18412" transform="rotate(-90 37.4654 88.8667)" fill="white" fill-opacity="0.3"/>
<circle cx="57.5601" cy="88.8667" r="2.18412" transform="rotate(-90 57.5601 88.8667)" fill="white" fill-opacity="0.3"/>
<circle cx="77.6538" cy="88.8667" r="2.18412" transform="rotate(-90 77.6538 88.8667)" fill="white" fill-opacity="0.3"/>
<circle cx="17.3716" cy="67.0249" r="2.18412" transform="rotate(-90 17.3716 67.0249)" fill="white" fill-opacity="0.3"/>
<circle cx="17.3716" cy="24.0249" r="2.18412" transform="rotate(-90 17.3716 24.0249)" fill="white" fill-opacity="0.3"/>
<circle cx="37.4654" cy="67.0249" r="2.18412" transform="rotate(-90 37.4654 67.0249)" fill="white" fill-opacity="0.3"/>
<circle cx="37.4654" cy="24.0249" r="2.18412" transform="rotate(-90 37.4654 24.0249)" fill="white" fill-opacity="0.3"/>
<circle cx="57.5601" cy="67.0249" r="2.18412" transform="rotate(-90 57.5601 67.0249)" fill="white" fill-opacity="0.3"/>
<circle cx="57.5601" cy="24.0249" r="2.18412" transform="rotate(-90 57.5601 24.0249)" fill="white" fill-opacity="0.3"/>
<circle cx="77.6538" cy="67.0249" r="2.18412" transform="rotate(-90 77.6538 67.0249)" fill="white" fill-opacity="0.3"/>
<circle cx="77.6538" cy="24.0249" r="2.18412" transform="rotate(-90 77.6538 24.0249)" fill="white" fill-opacity="0.3"/>
<circle cx="17.3716" cy="45.184" r="2.18412" transform="rotate(-90 17.3716 45.184)" fill="white" fill-opacity="0.3"/>
<circle cx="17.3716" cy="2.18404" r="2.18412" transform="rotate(-90 17.3716 2.18404)" fill="white" fill-opacity="0.3"/>
<circle cx="37.4654" cy="45.184" r="2.18412" transform="rotate(-90 37.4654 45.184)" fill="white" fill-opacity="0.3"/>
<circle cx="37.4654" cy="2.18404" r="2.18412" transform="rotate(-90 37.4654 2.18404)" fill="white" fill-opacity="0.3"/>
<circle cx="57.5601" cy="45.184" r="2.18412" transform="rotate(-90 57.5601 45.184)" fill="white" fill-opacity="0.3"/>
<circle cx="57.5601" cy="2.18404" r="2.18412" transform="rotate(-90 57.5601 2.18404)" fill="white" fill-opacity="0.3"/>
<circle cx="77.6538" cy="45.184" r="2.18412" transform="rotate(-90 77.6538 45.184)" fill="white" fill-opacity="0.3"/>
<circle cx="77.6538" cy="2.18404" r="2.18412" transform="rotate(-90 77.6538 2.18404)" fill="white" fill-opacity="0.3"/>
</svg>
