<svg width="28" height="31" viewBox="0 0 28 31" fill="none" xmlns="http://www.w3.org/2000/svg">
<g filter="url(#filter0_d_2274_13989)">
<path fill-rule="evenodd" clip-rule="evenodd" d="M14.4382 2.77841C14.2931 2.73181 14.1345 2.74311 13.9998 2.80804C13.8523 2.87913 13.7548 3.0032 13.7197 3.13821L13.244 4.97206C13.0777 5.61339 12.8354 6.23198 12.5235 6.81599C12.0392 7.72267 11.3063 8.42 10.6265 9.00585L9.18773 10.2456C8.96475 10.4378 8.8474 10.7258 8.87282 11.0198L9.68498 20.4125C9.72601 20.887 10.1224 21.25 10.5963 21.25H15.245C18.3813 21.25 21.0238 19.0677 21.5306 16.1371L22.2361 12.0574C22.3332 11.4959 21.9014 10.9842 21.3348 10.9842H16.1537C15.1766 10.9842 14.4344 10.1076 14.5921 9.14471L15.2548 5.10015C15.3456 4.54613 15.3197 3.97923 15.1787 3.43584C15.1072 3.16009 14.8896 2.92342 14.5832 2.82498L14.4382 2.77841L14.6676 2.06435L14.4382 2.77841ZM13.3486 1.45674C13.8312 1.2242 14.3873 1.18654 14.897 1.35029L15.042 1.39686L14.8126 2.11092L15.042 1.39686C15.819 1.64648 16.4252 2.26719 16.6307 3.0592C16.8241 3.80477 16.8596 4.58256 16.7351 5.34268L16.0724 9.38724C16.0639 9.439 16.1038 9.4842 16.1537 9.4842H21.3348C22.8341 9.4842 23.9695 10.8365 23.7142 12.313L23.0087 16.3928C22.3708 20.081 19.0712 22.75 15.245 22.75H10.5963C9.3427 22.75 8.29852 21.7902 8.19056 20.5417L7.3784 11.149C7.31149 10.3753 7.62022 9.61631 8.20855 9.10933L9.64729 7.86954C10.3025 7.30492 10.854 6.75767 11.2004 6.10924C11.457 5.62892 11.6557 5.12107 11.7921 4.59542L12.2678 2.76157C12.417 2.18627 12.8166 1.71309 13.3486 1.45674ZM4.96767 9.4849C5.36893 9.46758 5.71261 9.76944 5.74721 10.1696L6.71881 21.4061C6.78122 22.1279 6.21268 22.75 5.48671 22.75C4.80289 22.75 4.25 22.1953 4.25 21.5127V10.2342C4.25 9.83256 4.5664 9.50221 4.96767 9.4849Z" fill="url(#paint0_linear_2274_13989)"/>
</g>
<defs>
<filter id="filter0_d_2274_13989" x="-2" y="0" width="32" height="32" filterUnits="userSpaceOnUse" color-interpolation-filters="sRGB">
<feFlood flood-opacity="0" result="BackgroundImageFix"/>
<feColorMatrix in="SourceAlpha" type="matrix" values="0 0 0 0 0 0 0 0 0 0 0 0 0 0 0 0 0 0 127 0" result="hardAlpha"/>
<feOffset dy="4"/>
<feGaussianBlur stdDeviation="2"/>
<feComposite in2="hardAlpha" operator="out"/>
<feColorMatrix type="matrix" values="0 0 0 0 0 0 0 0 0 0 0 0 0 0 0 0 0 0 0.25 0"/>
<feBlend mode="normal" in2="BackgroundImageFix" result="effect1_dropShadow_2274_13989"/>
<feBlend mode="normal" in="SourceGraphic" in2="effect1_dropShadow_2274_13989" result="shape"/>
</filter>
<linearGradient id="paint0_linear_2274_13989" x1="8.71879" y1="3.9375" x2="19.8847" y2="19.9724" gradientUnits="userSpaceOnUse">
<stop stop-color="#5099FF"/>
<stop offset="1" stop-color="#005BDB"/>
</linearGradient>
</defs>
</svg>
