<svg width="32" height="32" viewBox="0 0 32 32" fill="none" xmlns="http://www.w3.org/2000/svg">
<path d="M10.5867 19.3472C9.76001 19.0405 9.02667 18.4405 8.56001 17.5872C7.49334 15.6405 8.14667 13.1072 10.04 11.9338L13.16 10.0005C15.04 8.82715 17.4667 9.46714 18.5333 11.4005C19.6 13.3471 18.9467 15.8805 17.0533 17.0538L16.64 17.3472" stroke="white" stroke-width="2" stroke-linecap="round" stroke-linejoin="round"/>
<path d="M21.48 12.5996C22.3067 12.9063 23.04 13.5062 23.5067 14.3596C24.5733 16.3062 23.92 18.8396 22.0267 20.0129L18.9067 21.9462C17.0267 23.1196 14.6 22.4796 13.5333 20.5463C12.4667 18.5996 13.12 16.0663 15.0133 14.8929L15.4267 14.5996" stroke="white" stroke-width="2" stroke-linecap="round" stroke-linejoin="round"/>
<path d="M16 29.3337C23.3638 29.3337 29.3333 23.3641 29.3333 16.0003C29.3333 8.63653 23.3638 2.66699 16 2.66699C8.63619 2.66699 2.66666 8.63653 2.66666 16.0003C2.66666 23.3641 8.63619 29.3337 16 29.3337Z" stroke="white" stroke-width="2" stroke-linecap="round" stroke-linejoin="round"/>
</svg>
