<svg width="24" height="24" viewBox="0 0 24 24" fill="none" xmlns="http://www.w3.org/2000/svg">
<path d="M21.0508 1.84584L21.1568 1.83984L21.2868 1.84784L21.3768 1.86384L21.4998 1.89884L21.6068 1.94484L21.7068 2.00184L21.7968 2.06884L21.8788 2.14384L21.9308 2.20284L22.0128 2.31884L22.0648 2.41484C22.1118 2.51484 22.1418 2.62084 22.1548 2.73084L22.1598 2.83684C22.1598 2.91184 22.1518 2.98584 22.1358 3.05684L22.1008 3.17984L15.5688 21.2568C15.445 21.5264 15.2464 21.7548 14.9967 21.9148C14.7469 22.0749 14.4565 22.1599 14.1598 22.1598C13.8927 22.1607 13.6298 22.0923 13.3969 21.9614C13.164 21.8305 12.969 21.6415 12.8308 21.4128L12.7658 21.2858L9.41384 14.5838L2.74384 11.2478C2.49704 11.135 2.28421 10.9593 2.12662 10.7383C1.96903 10.5174 1.87221 10.2589 1.84584 9.98884L1.83984 9.83984C1.83984 9.27984 2.14084 8.76784 2.68084 8.46984L2.82084 8.39984L20.8378 1.89384L20.9438 1.86384L21.0508 1.84584Z" fill="#ffffff"/>
</svg>
