<?xml version="1.0" standalone="no"?>
<!DOCTYPE svg PUBLIC "-//W3C//DTD SVG 20010904//EN"
 "http://www.w3.org/TR/2001/REC-SVG-20010904/DTD/svg10.dtd">
<svg version="1.0" xmlns="http://www.w3.org/2000/svg"
 width="512.000000pt" height="512.000000pt" viewBox="0 0 512.000000 512.000000"
 preserveAspectRatio="xMidYMid meet">

<g transform="translate(0.000000,512.000000) scale(0.100000,-0.100000)"
fill="#000000" stroke="none">
<path d="M2839 2951 l-29 -29 0 -486 0 -486 110 0 110 0 0 471 c0 404 -2 476
-15 504 -30 62 -125 77 -176 26z"/>
<path d="M3928 2951 l-33 -29 -3 -246 -3 -246 116 0 116 0 -3 246 -3 246 -33
29 c-25 23 -42 29 -77 29 -35 0 -52 -6 -77 -29z"/>
<path d="M1105 2936 c-97 -45 -141 -128 -133 -250 8 -119 61 -191 165 -222 35
-10 116 -14 323 -14 299 0 329 4 396 55 112 86 112 309 0 402 -60 49 -88 53
-407 53 -287 0 -295 -1 -344 -24z m585 -176 c30 -30 27 -83 -6 -109 -25 -20
-39 -21 -229 -21 -190 0 -204 1 -229 21 -33 26 -35 73 -4 106 21 23 25 23 235
23 200 0 214 -1 233 -20z"/>
<path d="M3165 2925 c-19 -18 -25 -35 -25 -65 0 -30 6 -47 25 -65 22 -23 32
-25 110 -25 93 0 94 -1 74 -61 -21 -62 -69 -101 -142 -114 -75 -14 -102 -97
-49 -150 25 -26 31 -27 97 -23 85 6 148 32 208 87 24 23 54 41 66 41 32 0 68
-41 76 -88 l7 -42 100 0 100 0 -4 68 c-7 122 -66 194 -177 215 -57 11 -61 13
-61 39 l0 28 93 0 c87 0 95 2 118 26 35 37 33 98 -4 130 l-28 24 -280 0 -280
0 -24 -25z"/>
<path d="M2102 2917 c-41 -44 -38 -110 7 -144 11 -8 63 -12 163 -13 180 0 178
1 178 -110 l0 -79 -149 -3 c-133 -3 -153 -5 -178 -24 -53 -39 -58 -62 -58
-259 0 -284 -7 -279 354 -283 173 -2 263 0 281 8 53 22 67 104 25 145 -24 25
-26 25 -207 25 -101 0 -193 3 -206 6 -22 6 -23 10 -20 103 l3 96 188 3 187 2
0 223 c0 335 8 327 -326 327 -217 0 -221 0 -242 -23z"/>
<path d="M3229 2361 l-29 -29 0 -146 c0 -161 7 -188 54 -214 27 -15 81 -17
449 -20 l417 -3 0 191 0 192 -29 29 c-23 23 -38 29 -71 29 -51 0 -93 -21 -108
-54 l-12 -26 -240 0 -239 0 -16 30 c-30 59 -127 70 -176 21z m671 -231 l0 -30
-224 0 c-123 0 -231 3 -240 6 -9 3 -16 17 -16 30 l0 24 240 0 240 0 0 -30z"/>
<path d="M966 2349 c-35 -41 -34 -83 3 -120 l29 -29 171 0 171 0 0 -125 0
-125 115 0 115 0 0 125 0 125 171 0 171 0 29 29 c37 37 38 79 3 120 l-26 31
-463 0 -463 0 -26 -31z"/>
<path d="M1719 1641 l-29 -29 0 -487 0 -486 108 3 107 3 3 228 2 227 29 0 c43
0 60 9 76 41 19 36 19 72 0 108 -16 32 -33 41 -75 41 l-29 0 -3 161 -3 161
-33 29 c-46 41 -111 41 -153 0z"/>
<path d="M2809 1641 l-29 -29 0 -487 0 -486 108 3 107 3 3 228 2 227 29 0 c16
0 37 3 46 6 21 8 45 56 45 89 0 33 -24 81 -45 89 -9 3 -29 6 -45 6 l-29 0 -3
161 -3 161 -33 29 c-46 41 -111 41 -153 0z"/>
<path d="M3929 1641 l-29 -29 0 -486 0 -486 110 0 110 0 0 471 c0 404 -2 476
-15 504 -30 62 -125 77 -176 26z"/>
<path d="M1055 1625 c-22 -8 -41 -15 -42 -15 -1 0 -10 -15 -20 -32 -16 -30
-18 -68 -18 -413 0 -420 1 -432 60 -459 27 -13 77 -16 284 -16 l251 0 0 428
c0 459 0 457 -53 496 -26 19 -43 21 -225 24 -155 1 -206 -1 -237 -13z m295
-185 c7 -12 9 -117 8 -297 l-3 -278 -62 -3 c-110 -5 -103 -25 -103 302 0 155
3 286 7 289 3 4 37 7 74 7 58 0 70 -3 79 -20z"/>
<path d="M2278 1611 l-33 -29 -7 -189 c-10 -282 -42 -376 -164 -492 -66 -62
-74 -74 -74 -106 0 -52 44 -95 97 -95 103 0 246 141 298 293 10 32 24 56 30
54 5 -1 24 -30 40 -62 28 -56 30 -68 30 -167 l0 -108 108 0 107 0 0 89 c0 224
-75 385 -208 447 l-41 19 -1 155 c0 131 -3 158 -18 176 -42 53 -114 59 -164
15z"/>
<path d="M3135 1605 c-19 -18 -25 -35 -25 -67 1 -77 34 -98 156 -98 l87 0 -7
-122 c-8 -142 -25 -228 -61 -297 -22 -44 -42 -67 -151 -168 -94 -87 18 -192
143 -132 64 30 172 141 202 207 14 29 29 51 35 49 17 -6 55 -66 66 -106 5 -20
10 -64 10 -98 l0 -63 105 0 105 0 0 58 c-1 90 -26 206 -56 262 -32 60 -101
124 -150 142 l-34 12 0 128 0 128 91 0 c87 0 92 1 120 29 31 32 38 75 17 114
-24 46 -28 46 -336 47 l-293 0 -24 -25z"/>
</g>
</svg>
