<svg width="20" height="20" viewBox="0 0 20 20" fill="none" xmlns="http://www.w3.org/2000/svg">
<path d="M9.99996 19.0087C9.42496 19.0087 8.88329 18.717 8.49996 18.2087L7.24996 16.542C7.22496 16.5087 7.12496 16.467 7.08329 16.4587H6.66663C3.19163 16.4587 1.04163 15.517 1.04163 10.8337V6.66699C1.04163 2.98366 2.98329 1.04199 6.66663 1.04199H13.3333C17.0166 1.04199 18.9583 2.98366 18.9583 6.66699V10.8337C18.9583 14.517 17.0166 16.4587 13.3333 16.4587H12.9166C12.85 16.4587 12.7916 16.492 12.75 16.542L11.5 18.2087C11.1166 18.717 10.575 19.0087 9.99996 19.0087ZM6.66663 2.29199C3.68329 2.29199 2.29163 3.68366 2.29163 6.66699V10.8337C2.29163 14.6003 3.58329 15.2087 6.66663 15.2087H7.08329C7.50829 15.2087 7.99163 15.4503 8.24996 15.792L9.49996 17.4587C9.79163 17.842 10.2083 17.842 10.5 17.4587L11.75 15.792C12.025 15.4253 12.4583 15.2087 12.9166 15.2087H13.3333C16.3166 15.2087 17.7083 13.817 17.7083 10.8337V6.66699C17.7083 3.68366 16.3166 2.29199 13.3333 2.29199H6.66663Z" fill="#555770"/>
<path d="M14.1667 7.29199H5.83337C5.49171 7.29199 5.20837 7.00866 5.20837 6.66699C5.20837 6.32533 5.49171 6.04199 5.83337 6.04199H14.1667C14.5084 6.04199 14.7917 6.32533 14.7917 6.66699C14.7917 7.00866 14.5084 7.29199 14.1667 7.29199Z" fill="#555770"/>
<path d="M10.8334 11.458H5.83337C5.49171 11.458 5.20837 11.1747 5.20837 10.833C5.20837 10.4913 5.49171 10.208 5.83337 10.208H10.8334C11.175 10.208 11.4584 10.4913 11.4584 10.833C11.4584 11.1747 11.175 11.458 10.8334 11.458Z" fill="#555770"/>
</svg>
