<svg width="32" height="32" viewBox="0 0 32 32" fill="none" xmlns="http://www.w3.org/2000/svg">
<path fill-rule="evenodd" clip-rule="evenodd" d="M19.6755 3.49559C22.1136 1.05746 26.0666 1.05746 28.5047 3.49559C30.9429 5.93372 30.9429 9.88671 28.5047 12.3248L15.8577 24.9719C15.1351 25.6945 14.7097 26.1199 14.2366 26.489C13.6788 26.924 13.0754 27.297 12.4368 27.6013C11.8951 27.8594 11.3244 28.0496 10.3549 28.3728L5.91344 29.8533L4.844 30.2097C3.97658 30.4989 3.02025 30.2731 2.37372 29.6266C1.72719 28.9801 1.50143 28.0237 1.79057 27.1563L3.62753 21.6454C3.95066 20.6759 4.14087 20.1052 4.39905 19.5635C4.70336 18.925 5.07632 18.3215 5.51134 17.7638C5.88042 17.2906 6.30581 16.8652 7.02845 16.1426L19.6755 3.49559ZM5.86731 27.7605L9.656 26.4976C10.7108 26.146 11.159 25.9947 11.5764 25.7958C12.0838 25.554 12.5633 25.2576 13.0065 24.9119C13.3711 24.6276 13.7068 24.2943 14.493 23.5081L24.5857 13.4155C23.5341 13.0446 22.1795 12.3572 20.9113 11.089C19.6431 9.82084 18.9557 8.46618 18.5848 7.41466L8.49219 17.5073C7.70598 18.2935 7.37274 18.6292 7.08836 18.9938C6.74268 19.437 6.44631 19.9165 6.2045 20.4239C6.00557 20.8413 5.85436 21.2895 5.50275 22.3443L4.23985 26.133L5.86731 27.7605ZM20.2071 5.79239C20.2527 6.02566 20.3298 6.34278 20.4584 6.71349C20.7479 7.54809 21.2949 8.64417 22.3255 9.67479C23.3561 10.7054 24.4522 11.2524 25.2868 11.5419C25.6575 11.6705 25.9746 11.7476 26.2079 11.7932L27.0905 10.9106C28.7476 9.25354 28.7476 6.56688 27.0905 4.9098C25.4334 3.25272 22.7468 3.25272 21.0897 4.9098L20.2071 5.79239Z" fill="white"/>
</svg>
