<svg width="36" height="39" viewBox="0 0 36 39" fill="none" xmlns="http://www.w3.org/2000/svg">
<path d="M6.78105 7.34614C6.28095 7.88791 6 8.62271 6 9.38889V10.8333C6 22.7991 14.9547 32.5 26 32.5H27.3333C28.0406 32.5 28.7189 32.1956 29.219 31.6539C29.719 31.1121 30 30.3773 30 29.6111V24.8748C30.0001 24.5715 29.912 24.2759 29.7483 24.0298C29.5846 23.7838 29.3536 23.5998 29.088 23.504L23.0973 21.3402C22.7929 21.2306 22.4621 21.2436 22.1658 21.3767C21.8695 21.5099 21.6274 21.7544 21.484 22.0653L19.9773 25.3254C16.7126 23.7274 14.0978 20.8947 12.6227 17.3579L15.632 15.7257C15.919 15.5703 16.1447 15.3081 16.2676 14.987C16.3906 14.666 16.4025 14.3077 16.3013 13.9779L14.304 7.488C14.2156 7.20049 14.046 6.95038 13.8191 6.77307C13.5923 6.59576 13.3197 6.50023 13.04 6.5H8.66667C7.95942 6.5 7.28115 6.80436 6.78105 7.34614Z" stroke="#39424E" stroke-width="2" stroke-linecap="round" stroke-linejoin="round"/>
</svg>
