<svg width="25" height="24" viewBox="0 0 25 24" fill="none" xmlns="http://www.w3.org/2000/svg">
<g id="Linear / Call / Phone Calling Rounded">
<path id="Vector" d="M14.5 2C14.5 2 16.7 2.2 19.5 5C22.3 7.8 22.5 10 22.5 10" stroke="white" stroke-width="1.5" stroke-linecap="round"/>
<path id="Vector_2" d="M14.707 5.53516C14.707 5.53516 15.697 5.818 17.1819 7.30292C18.6668 8.78785 18.9497 9.7778 18.9497 9.7778" stroke="white" stroke-width="1.5" stroke-linecap="round"/>
<path id="Vector_3" d="M10.5376 5.31617L11.1866 6.4791C11.7723 7.52858 11.5372 8.90532 10.6147 9.8278C10.6147 9.8278 10.6147 9.8278 10.6147 9.8278C10.6146 9.82792 9.49588 10.9468 11.5245 12.9755C13.5525 15.0035 14.6714 13.8861 14.6722 13.8853C14.6722 13.8853 14.6722 13.8853 14.6722 13.8853C15.5947 12.9628 16.9714 12.7277 18.0209 13.3134L19.1838 13.9624C20.7686 14.8468 20.9557 17.0692 19.5628 18.4622C18.7258 19.2992 17.7004 19.9505 16.5669 19.9934C14.6588 20.0658 11.4183 19.5829 8.1677 16.3323C4.91713 13.0817 4.43421 9.84122 4.50655 7.93309C4.54952 6.7996 5.2008 5.77423 6.03781 4.93723C7.43076 3.54428 9.65317 3.73144 10.5376 5.31617Z" stroke="white" stroke-width="1.5" stroke-linecap="round"/>
</g>
</svg>
