<svg width="25" height="24" viewBox="0 0 25 24" fill="none" xmlns="http://www.w3.org/2000/svg">
<path fill-rule="evenodd" clip-rule="evenodd" d="M5.65699 17.4277C5.29728 17.7874 5.29728 18.3706 5.65699 18.7303C6.0167 19.09 6.59991 19.09 6.95962 18.7303L12.3872 13.3027L17.8149 18.7304C18.1746 19.0901 18.7578 19.0901 19.1175 18.7304C19.4772 18.3707 19.4772 17.7875 19.1175 17.4278L13.6898 12.0001L19.1175 6.57242C19.4772 6.2127 19.4772 5.6295 19.1175 5.26978C18.7578 4.91007 18.1746 4.91007 17.8149 5.26978L12.3872 10.6975L6.95962 5.26988C6.59991 4.91017 6.0167 4.91017 5.65699 5.26988C5.29728 5.6296 5.29728 6.2128 5.65699 6.57252L11.0846 12.0001L5.65699 17.4277Z" fill="black"/>
</svg>
