<svg width="105" height="135" viewBox="0 0 105 135" fill="none" xmlns="http://www.w3.org/2000/svg">
<circle cx="2.18412" cy="132.548" r="2.18412" transform="rotate(-90 2.18412 132.548)" fill="white" fill-opacity="0.3"/>
<circle cx="22.2779" cy="132.548" r="2.18412" transform="rotate(-90 22.2779 132.548)" fill="white" fill-opacity="0.3"/>
<circle cx="42.3716" cy="132.548" r="2.18412" transform="rotate(-90 42.3716 132.548)" fill="white" fill-opacity="0.3"/>
<circle cx="62.4654" cy="132.548" r="2.18412" transform="rotate(-90 62.4654 132.548)" fill="white" fill-opacity="0.3"/>
<circle cx="82.5601" cy="132.548" r="2.18412" transform="rotate(-90 82.5601 132.548)" fill="white" fill-opacity="0.3"/>
<circle cx="102.654" cy="132.548" r="2.18412" transform="rotate(-90 102.654 132.548)" fill="white" fill-opacity="0.3"/>
<circle cx="2.18412" cy="110.708" r="2.18412" transform="rotate(-90 2.18412 110.708)" fill="white" fill-opacity="0.3"/>
<circle cx="22.2779" cy="110.708" r="2.18412" transform="rotate(-90 22.2779 110.708)" fill="white" fill-opacity="0.3"/>
<circle cx="42.3716" cy="110.708" r="2.18412" transform="rotate(-90 42.3716 110.708)" fill="white" fill-opacity="0.3"/>
<circle cx="62.4654" cy="110.708" r="2.18412" transform="rotate(-90 62.4654 110.708)" fill="white" fill-opacity="0.3"/>
<circle cx="82.5601" cy="110.708" r="2.18412" transform="rotate(-90 82.5601 110.708)" fill="white" fill-opacity="0.3"/>
<circle cx="102.654" cy="110.708" r="2.18412" transform="rotate(-90 102.654 110.708)" fill="white" fill-opacity="0.3"/>
<circle cx="2.18412" cy="88.8667" r="2.18412" transform="rotate(-90 2.18412 88.8667)" fill="white" fill-opacity="0.3"/>
<circle cx="22.2779" cy="88.8667" r="2.18412" transform="rotate(-90 22.2779 88.8667)" fill="white" fill-opacity="0.3"/>
<circle cx="42.3716" cy="88.8667" r="2.18412" transform="rotate(-90 42.3716 88.8667)" fill="white" fill-opacity="0.3"/>
<circle cx="62.4654" cy="88.8667" r="2.18412" transform="rotate(-90 62.4654 88.8667)" fill="white" fill-opacity="0.3"/>
<circle cx="82.5601" cy="88.8667" r="2.18412" transform="rotate(-90 82.5601 88.8667)" fill="white" fill-opacity="0.3"/>
<circle cx="102.654" cy="88.8667" r="2.18412" transform="rotate(-90 102.654 88.8667)" fill="white" fill-opacity="0.3"/>
<circle cx="2.18412" cy="67.0249" r="2.18412" transform="rotate(-90 2.18412 67.0249)" fill="white" fill-opacity="0.3"/>
<circle cx="2.18412" cy="24.0249" r="2.18412" transform="rotate(-90 2.18412 24.0249)" fill="white" fill-opacity="0.3"/>
<circle cx="22.2779" cy="67.0249" r="2.18412" transform="rotate(-90 22.2779 67.0249)" fill="white" fill-opacity="0.3"/>
<circle cx="22.2779" cy="24.0249" r="2.18412" transform="rotate(-90 22.2779 24.0249)" fill="white" fill-opacity="0.3"/>
<circle cx="42.3716" cy="67.0249" r="2.18412" transform="rotate(-90 42.3716 67.0249)" fill="white" fill-opacity="0.3"/>
<circle cx="42.3716" cy="24.0249" r="2.18412" transform="rotate(-90 42.3716 24.0249)" fill="white" fill-opacity="0.3"/>
<circle cx="62.4654" cy="67.0249" r="2.18412" transform="rotate(-90 62.4654 67.0249)" fill="white" fill-opacity="0.3"/>
<circle cx="62.4654" cy="24.0249" r="2.18412" transform="rotate(-90 62.4654 24.0249)" fill="white" fill-opacity="0.3"/>
<circle cx="82.5601" cy="67.0249" r="2.18412" transform="rotate(-90 82.5601 67.0249)" fill="white" fill-opacity="0.3"/>
<circle cx="82.5601" cy="24.0249" r="2.18412" transform="rotate(-90 82.5601 24.0249)" fill="white" fill-opacity="0.3"/>
<circle cx="102.654" cy="67.0249" r="2.18412" transform="rotate(-90 102.654 67.0249)" fill="white" fill-opacity="0.3"/>
<circle cx="102.654" cy="24.0249" r="2.18412" transform="rotate(-90 102.654 24.0249)" fill="white" fill-opacity="0.3"/>
<circle cx="2.18412" cy="45.184" r="2.18412" transform="rotate(-90 2.18412 45.184)" fill="white" fill-opacity="0.3"/>
<circle cx="2.18412" cy="2.18404" r="2.18412" transform="rotate(-90 2.18412 2.18404)" fill="white" fill-opacity="0.3"/>
<circle cx="22.2779" cy="45.184" r="2.18412" transform="rotate(-90 22.2779 45.184)" fill="white" fill-opacity="0.3"/>
<circle cx="22.2779" cy="2.18404" r="2.18412" transform="rotate(-90 22.2779 2.18404)" fill="white" fill-opacity="0.3"/>
<circle cx="42.3716" cy="45.184" r="2.18412" transform="rotate(-90 42.3716 45.184)" fill="white" fill-opacity="0.3"/>
<circle cx="42.3716" cy="2.18404" r="2.18412" transform="rotate(-90 42.3716 2.18404)" fill="white" fill-opacity="0.3"/>
<circle cx="62.4654" cy="45.184" r="2.18412" transform="rotate(-90 62.4654 45.184)" fill="white" fill-opacity="0.3"/>
<circle cx="62.4654" cy="2.18404" r="2.18412" transform="rotate(-90 62.4654 2.18404)" fill="white" fill-opacity="0.3"/>
<circle cx="82.5601" cy="45.184" r="2.18412" transform="rotate(-90 82.5601 45.184)" fill="white" fill-opacity="0.3"/>
<circle cx="82.5601" cy="2.18404" r="2.18412" transform="rotate(-90 82.5601 2.18404)" fill="white" fill-opacity="0.3"/>
<circle cx="102.654" cy="45.184" r="2.18412" transform="rotate(-90 102.654 45.184)" fill="white" fill-opacity="0.3"/>
<circle cx="102.654" cy="2.18404" r="2.18412" transform="rotate(-90 102.654 2.18404)" fill="white" fill-opacity="0.3"/>
</svg>
