<svg width="16" height="16" viewBox="0 0 16 16" fill="none" xmlns="http://www.w3.org/2000/svg">
<g clip-path="url(#clip0_143_12014)">
<path fill-rule="evenodd" clip-rule="evenodd" d="M7.66683 1.83301C4.44517 1.83301 1.8335 4.44468 1.8335 7.66634C1.8335 10.888 4.44517 13.4997 7.66683 13.4997C10.8885 13.4997 13.5002 10.888 13.5002 7.66634C13.5002 4.44468 10.8885 1.83301 7.66683 1.83301ZM0.833496 7.66634C0.833496 3.8924 3.89288 0.833008 7.66683 0.833008C11.4408 0.833008 14.5002 3.8924 14.5002 7.66634C14.5002 9.37335 13.8742 10.9342 12.8394 12.1318L15.0204 14.3128C15.2156 14.508 15.2156 14.8246 15.0204 15.0199C14.8251 15.2152 14.5085 15.2152 14.3133 15.0199L12.1323 12.8389C10.9347 13.8738 9.37384 14.4997 7.66683 14.4997C3.89288 14.4997 0.833496 11.4403 0.833496 7.66634Z" fill="white"/>
</g>
<defs>
<clipPath id="clip0_143_12014">
<rect width="16" height="16" fill="white"/>
</clipPath>
</defs>
</svg>
