<svg width="28" height="31" viewBox="0 0 28 31" fill="none" xmlns="http://www.w3.org/2000/svg">
<g filter="url(#filter0_d_2274_13998)">
<path d="M12.0303 8.96965C11.7374 8.67676 11.2626 8.67676 10.9697 8.96965C10.6768 9.26254 10.6768 9.73742 10.9697 10.0303L12.9394 12L10.9697 13.9697C10.6768 14.2625 10.6768 14.7374 10.9697 15.0303C11.2626 15.3232 11.7375 15.3232 12.0304 15.0303L14 13.0607L15.9696 15.0303C16.2625 15.3232 16.7374 15.3232 17.0303 15.0303C17.3232 14.7374 17.3232 14.2625 17.0303 13.9696L15.0607 12L17.0303 10.0303C17.3232 9.73744 17.3232 9.26256 17.0303 8.96967C16.7374 8.67678 16.2626 8.67678 15.9697 8.96967L14 10.9393L12.0303 8.96965Z" fill="#111315"/>
<path fill-rule="evenodd" clip-rule="evenodd" d="M14 1.25C13.0625 1.25 12.1673 1.55658 10.7234 2.05112L9.99595 2.30014C8.51462 2.8072 7.3714 3.19852 6.55303 3.53099C6.14078 3.69846 5.78637 3.86067 5.50098 4.02641C5.22634 4.1859 4.95082 4.38484 4.76363 4.65154C4.5786 4.91516 4.48293 5.23924 4.42281 5.55122C4.36031 5.87556 4.32262 6.26464 4.2983 6.71136C4.25 7.59836 4.25 8.81351 4.25 10.3896V11.9914C4.25 18.0924 8.85803 21.0175 11.5983 22.2146L11.6254 22.2264C11.9652 22.3749 12.2846 22.5144 12.6516 22.6084C13.0391 22.7076 13.4507 22.75 14 22.75C14.5493 22.75 14.9609 22.7076 15.3484 22.6084C15.7154 22.5144 16.0348 22.3749 16.3745 22.2264L16.4017 22.2146C19.142 21.0175 23.75 18.0924 23.75 11.9914V10.3898C23.75 8.81361 23.75 7.5984 23.7017 6.71136C23.6774 6.26464 23.6397 5.87556 23.5772 5.55122C23.5171 5.23924 23.4214 4.91516 23.2364 4.65154C23.0492 4.38484 22.7737 4.1859 22.499 4.02641C22.2136 3.86067 21.8592 3.69846 21.447 3.53099C20.6286 3.19852 19.4854 2.8072 18.004 2.30013L17.2766 2.05112C15.8327 1.55658 14.9375 1.25 14 1.25ZM11.0806 3.5143C12.6951 2.96164 13.3423 2.75 14 2.75C14.6577 2.75 15.3049 2.96164 16.9194 3.5143L17.4922 3.71037C19.0048 4.22814 20.1079 4.60605 20.8824 4.92069C21.269 5.07774 21.5491 5.20935 21.7457 5.32353C21.8428 5.3799 21.9097 5.42642 21.9543 5.46273C21.9922 5.49349 22.0066 5.51092 22.0087 5.51348C22.0106 5.5166 22.0231 5.53737 22.0406 5.58654C22.0606 5.64265 22.0827 5.72309 22.1043 5.83506C22.148 6.06169 22.1811 6.37301 22.2039 6.79292C22.2497 7.63411 22.25 8.80833 22.25 10.4167V11.9914C22.25 17.1665 18.3801 19.7135 15.8012 20.84C15.4297 21.0023 15.2152 21.0941 14.9764 21.1552C14.7483 21.2136 14.47 21.25 14 21.25C13.53 21.25 13.2517 21.2136 13.0236 21.1552C12.7848 21.0941 12.5703 21.0023 12.1988 20.84C9.6199 19.7135 5.75 17.1665 5.75 11.9914V10.4167C5.75 8.80833 5.75028 7.63411 5.79608 6.79292C5.81894 6.37301 5.85204 6.06169 5.89571 5.83506C5.91729 5.72309 5.93944 5.64265 5.95943 5.58654C5.97693 5.5374 5.98936 5.51663 5.99129 5.51349C5.99336 5.51095 6.0078 5.49351 6.04567 5.46273C6.09034 5.42642 6.15722 5.3799 6.25429 5.32353C6.4509 5.20935 6.731 5.07774 7.11759 4.92069C7.8921 4.60605 8.99521 4.22814 10.5078 3.71037L11.0806 3.5143Z" fill="#111315"/>
</g>
<defs>
<filter id="filter0_d_2274_13998" x="-2" y="0" width="32" height="32" filterUnits="userSpaceOnUse" color-interpolation-filters="sRGB">
<feFlood flood-opacity="0" result="BackgroundImageFix"/>
<feColorMatrix in="SourceAlpha" type="matrix" values="0 0 0 0 0 0 0 0 0 0 0 0 0 0 0 0 0 0 127 0" result="hardAlpha"/>
<feOffset dy="4"/>
<feGaussianBlur stdDeviation="2"/>
<feComposite in2="hardAlpha" operator="out"/>
<feColorMatrix type="matrix" values="0 0 0 0 0 0 0 0 0 0 0 0 0 0 0 0 0 0 0.25 0"/>
<feBlend mode="normal" in2="BackgroundImageFix" result="effect1_dropShadow_2274_13998"/>
<feBlend mode="normal" in="SourceGraphic" in2="effect1_dropShadow_2274_13998" result="shape"/>
</filter>
</defs>
</svg>
