<svg width="28" height="28" viewBox="0 0 28 28" fill="none" xmlns="http://www.w3.org/2000/svg">
<path d="M21.7418 18.2815L23.7443 12.2739C25.4937 7.02583 26.3684 4.40177 24.9832 3.01662C23.5981 1.63147 20.974 2.50616 15.7259 4.25553L9.71834 6.25805C5.4826 7.66996 3.36474 8.37592 2.7629 9.41115C2.19036 10.396 2.19036 11.6123 2.7629 12.5971C3.36473 13.6324 5.4826 14.3383 9.71834 15.7503C10.2433 15.9252 10.8338 15.8003 11.2269 15.4108L17.6502 9.04712C18.0115 8.68911 18.5947 8.69182 18.9527 9.05318C19.3107 9.41455 19.308 9.99772 18.9467 10.3557L12.6271 16.6167C12.1939 17.0459 12.0567 17.7029 12.2496 18.2815C13.6615 22.5172 14.3675 24.6351 15.4027 25.2369C16.3875 25.8095 17.6038 25.8095 18.5887 25.2369C19.6239 24.6351 20.3299 22.5172 21.7418 18.2815Z" fill="url(#paint0_linear_234_7004)"/>
<defs>
<linearGradient id="paint0_linear_234_7004" x1="7.68072" y1="5.24967" x2="19.3474" y2="23.7219" gradientUnits="userSpaceOnUse">
<stop stop-color="#5099FF"/>
<stop offset="1" stop-color="#005BDB"/>
</linearGradient>
</defs>
</svg>
