<svg width="25" height="22" viewBox="0 0 25 22" fill="none" xmlns="http://www.w3.org/2000/svg">
<path d="M12.3931 11.4004C12.8468 11.4004 13.2674 11.2759 13.6548 11.0269C14.0477 10.7778 14.3631 10.4403 14.6011 10.0142C14.839 9.58805 14.958 9.10938 14.958 8.57812C14.958 8.05241 14.839 7.58203 14.6011 7.16699C14.3631 6.75195 14.0477 6.42546 13.6548 6.1875C13.2674 5.94401 12.8468 5.82227 12.3931 5.82227C11.9338 5.82227 11.5076 5.94401 11.1147 6.1875C10.7274 6.43099 10.4147 6.76302 10.1768 7.18359C9.94434 7.60417 9.82812 8.07454 9.82812 8.59473C9.82812 9.12044 9.94434 9.59635 10.1768 10.0225C10.4147 10.443 10.7274 10.7778 11.1147 11.0269C11.5076 11.2759 11.9338 11.4004 12.3931 11.4004ZM8.20117 17.1777H16.5684C16.917 17.1777 17.1937 17.0975 17.3984 16.937C17.6032 16.7821 17.7056 16.5662 17.7056 16.2896C17.7056 15.8745 17.5811 15.4401 17.332 14.9863C17.0885 14.5326 16.7344 14.1092 16.2695 13.7163C15.8102 13.3179 15.2513 12.9969 14.5928 12.7534C13.9398 12.5044 13.2065 12.3799 12.3931 12.3799C11.5741 12.3799 10.8353 12.5044 10.1768 12.7534C9.52376 12.9969 8.96484 13.3179 8.5 13.7163C8.04069 14.1092 7.68652 14.5326 7.4375 14.9863C7.19401 15.4401 7.07227 15.8745 7.07227 16.2896C7.07227 16.5662 7.17188 16.7821 7.37109 16.937C7.57031 17.0975 7.84701 17.1777 8.20117 17.1777Z" fill="white"/>
<path opacity="0.5" d="M0.672363 16.9785C0.85498 16.9785 1.00993 16.9149 1.13721 16.7876C1.27002 16.6603 1.33643 16.5026 1.33643 16.3145C1.33643 14.9919 1.52181 13.7329 1.89258 12.5376C2.26335 11.3423 2.7863 10.2466 3.46143 9.25049C4.14209 8.25439 4.94173 7.38835 5.86035 6.65234C6.77897 5.91634 7.7889 5.34635 8.89014 4.94238C9.99691 4.53841 11.159 4.33643 12.3765 4.33643C13.5939 4.33643 14.7533 4.53841 15.8545 4.94238C16.9557 5.34635 17.9657 5.91634 18.8843 6.65234C19.8084 7.38835 20.6081 8.25439 21.2832 9.25049C21.9639 10.2466 22.4896 11.3423 22.8604 12.5376C23.2367 13.7329 23.4248 14.9919 23.4248 16.3145C23.4248 16.5026 23.4884 16.6603 23.6157 16.7876C23.743 16.9149 23.8979 16.9785 24.0806 16.9785C24.2687 16.9785 24.4292 16.9149 24.562 16.7876C24.6948 16.6603 24.7612 16.5026 24.7612 16.3145C24.7612 14.848 24.5509 13.4507 24.1304 12.1226C23.7153 10.7944 23.126 9.57699 22.3623 8.47021C21.6042 7.35791 20.7077 6.39225 19.6729 5.57324C18.6436 4.75423 17.5091 4.12061 16.2695 3.67236C15.0355 3.22412 13.7378 3 12.3765 3C11.0096 3 9.70915 3.22412 8.4751 3.67236C7.24105 4.12061 6.10661 4.75423 5.07178 5.57324C4.04248 6.39225 3.14876 7.35791 2.39062 8.47021C1.63249 9.57699 1.04313 10.7944 0.622559 12.1226C0.20752 13.4507 0 14.848 0 16.3145C0 16.5026 0.0636393 16.6603 0.190918 16.7876C0.32373 16.9149 0.484212 16.9785 0.672363 16.9785ZM4.51562 16.9785C4.69824 16.9785 4.85872 16.9149 4.99707 16.7876C5.13542 16.6603 5.20459 16.5054 5.20459 16.3228C5.20459 15.3931 5.35124 14.5076 5.64453 13.6665C5.94336 12.8254 6.36393 12.0645 6.90625 11.3838C7.4541 10.6976 8.09603 10.1248 8.83203 9.66553C8.76562 9.4165 8.72412 9.17301 8.70752 8.93506C8.69645 8.69157 8.70752 8.44531 8.74072 8.19629C7.76123 8.68327 6.90348 9.3418 6.16748 10.1719C5.43701 10.9964 4.86702 11.9372 4.45752 12.9941C4.05355 14.0456 3.85156 15.1551 3.85156 16.3228C3.85156 16.5054 3.9152 16.6603 4.04248 16.7876C4.17529 16.9149 4.33301 16.9785 4.51562 16.9785ZM20.2456 16.9785C20.4282 16.9785 20.5859 16.9149 20.7188 16.7876C20.8516 16.6603 20.918 16.5054 20.918 16.3228C20.918 15.1606 20.716 14.0539 20.312 13.0024C19.908 11.951 19.3408 11.013 18.6104 10.1885C17.8854 9.36393 17.036 8.7054 16.062 8.21289C16.0841 8.45085 16.0869 8.69434 16.0703 8.94336C16.0537 9.18685 16.015 9.43311 15.9541 9.68213C16.6901 10.1359 17.3265 10.7059 17.8633 11.3921C18.4056 12.0783 18.8234 12.842 19.1167 13.6831C19.4155 14.5187 19.5649 15.3986 19.5649 16.3228C19.5649 16.5054 19.6313 16.6603 19.7642 16.7876C19.9025 16.9149 20.063 16.9785 20.2456 16.9785Z" fill="white"/>
</svg>
