<svg width="36" height="37" viewBox="0 0 36 37" fill="none" xmlns="http://www.w3.org/2000/svg">
<path fill-rule="evenodd" clip-rule="evenodd" d="M4.40918 7.59082H17.5165C18.0726 7.59082 18.5235 7.99666 18.5235 8.4973C18.5235 8.99793 18.0726 9.40377 17.5165 9.40377H6.42317V28.687H28.577V23.6602C28.577 23.1595 29.0279 22.7537 29.584 22.7537C30.1402 22.7537 30.591 23.1595 30.591 23.6602V30.4999H4.40918V7.59082Z" fill="#39424E"/>
<path d="M23.1503 10.4475V6.5L27.8351 10.7931L31.5913 14.2353L27.7684 17.1548L23.1503 20.6818V16.8192C15.0427 16.2592 11.1358 20.5587 11.1358 20.5587C11.1358 17.8799 11.3766 15.0999 13.6747 12.9949C16.3461 10.546 21.2812 10.3727 23.1503 10.4475Z" fill="#39424E"/>
</svg>
