<svg width="22" height="23" viewBox="0 0 22 23" fill="currentColor" xmlns="http://www.w3.org/2000/svg">
<path d="M13.4746 20.8563H8.52462C3.99629 20.8563 2.07129 18.9221 2.07129 14.4029V10.2871C2.07129 9.91128 2.38296 9.59961 2.75879 9.59961C3.13462 9.59961 3.44629 9.91128 3.44629 10.2871V14.4029C3.44629 18.1521 4.77546 19.4813 8.52462 19.4813H13.4655C17.2146 19.4813 18.5438 18.1521 18.5438 14.4029V10.2871C18.5438 9.91128 18.8555 9.59961 19.2313 9.59961C19.6071 9.59961 19.9188 9.91128 19.9188 10.2871V14.4029C19.928 18.9221 17.9938 20.8563 13.4746 20.8563Z" fill="currentColor"/>
<path d="M11.0001 11.6901C9.99175 11.6901 9.07508 11.2959 8.42425 10.5718C7.77342 9.8476 7.47092 8.90344 7.57175 7.8951L8.18592 1.77177C8.22258 1.42344 8.51592 1.14844 8.87342 1.14844H13.1542C13.5117 1.14844 13.8051 1.41427 13.8417 1.77177L14.4559 7.8951C14.5567 8.90344 14.2542 9.8476 13.6034 10.5718C12.9251 11.2959 12.0084 11.6901 11.0001 11.6901ZM9.48758 2.52344L8.93758 8.0326C8.87342 8.64677 9.05675 9.22427 9.44175 9.64594C10.2209 10.5076 11.7792 10.5076 12.5584 9.64594C12.9434 9.21511 13.1267 8.6376 13.0626 8.0326L12.5126 2.52344H9.48758Z" fill="currentColor"/>
<path d="M16.784 11.6901C14.9232 11.6901 13.264 10.1868 13.0715 8.3351L12.4298 1.90927C12.4115 1.71677 12.4757 1.52427 12.604 1.3776C12.7323 1.23094 12.9157 1.14844 13.1173 1.14844H15.9132C18.6082 1.14844 19.864 2.27594 20.2398 5.04427L20.4965 7.5926C20.6065 8.67427 20.2765 9.70094 19.5707 10.4801C18.8648 11.2593 17.8748 11.6901 16.784 11.6901ZM13.8782 2.52344L14.4465 8.1976C14.5657 9.34344 15.629 10.3151 16.784 10.3151C17.4807 10.3151 18.104 10.0493 18.5532 9.56344C18.9932 9.0776 19.1948 8.42677 19.1307 7.7301L18.874 5.20927C18.5898 3.1376 17.9207 2.52344 15.9132 2.52344H13.8782Z" fill="currentColor"/>
<path d="M5.16978 11.6901C4.07894 11.6901 3.08894 11.2593 2.38311 10.4801C1.67728 9.70094 1.34728 8.67427 1.45728 7.5926L1.70478 5.07177C2.08978 2.27594 3.34561 1.14844 6.04061 1.14844H8.83644C9.02894 1.14844 9.21228 1.23094 9.34978 1.3776C9.48728 1.52427 9.54228 1.71677 9.52394 1.90927L8.88228 8.3351C8.68977 10.1868 7.03061 11.6901 5.16978 11.6901ZM6.04061 2.52344C4.03311 2.52344 3.36394 3.12844 3.07061 5.2276L2.82311 7.7301C2.74978 8.42677 2.96061 9.0776 3.40061 9.56344C3.84061 10.0493 4.46394 10.3151 5.16978 10.3151C6.32478 10.3151 7.39728 9.34344 7.50728 8.1976L8.07561 2.52344H6.04061Z" fill="currentColor"/>
<path d="M13.2918 20.8568H8.7085C8.33266 20.8568 8.021 20.5451 8.021 20.1693V17.8776C8.021 15.9526 9.07516 14.8984 11.0002 14.8984C12.9252 14.8984 13.9793 15.9526 13.9793 17.8776V20.1693C13.9793 20.5451 13.6677 20.8568 13.2918 20.8568ZM9.396 19.4818H12.6043V17.8776C12.6043 16.7226 12.1552 16.2734 11.0002 16.2734C9.84516 16.2734 9.396 16.7226 9.396 17.8776V19.4818Z" fill="currentColor"/>
</svg>
