<svg width="176" height="176" viewBox="0 0 176 176" fill="none" xmlns="http://www.w3.org/2000/svg">
<g filter="url(#filter0_f_156_8634)">
<circle cx="88" cy="88" r="86" fill="#D6FFEA" fill-opacity="0.32"/>
</g>
<g filter="url(#filter1_f_156_8634)">
<circle cx="88" cy="87.9994" r="73.7143" fill="#D6FFEA" fill-opacity="0.44"/>
</g>
<circle cx="97" cy="25" r="4" fill="#20DC07" fill-opacity="0.9"/>
<circle cx="51.5" cy="150" r="6" fill="#20DC07" fill-opacity="0.9"/>
<circle cx="51.5" cy="36.5" r="1.5" fill="#20DC07" fill-opacity="0.9"/>
<circle cx="107.5" cy="153.5" r="1.5" fill="#20DC07" fill-opacity="0.9"/>
<circle cx="21.5" cy="93.5" r="2.5" fill="#4BCE3A"/>
<rect x="37.5" y="40" width="100" height="100" rx="50" fill="url(#paint0_linear_156_8634)"/>
<rect x="65.5" y="68" width="44" height="44" rx="22" fill="white"/>
<path d="M77.5 88.1935L84.2678 95.438C84.6523 95.8496 85.3008 95.8626 85.7014 95.4667L97.5 83.8086" stroke="#4BCE3A" stroke-width="4" stroke-linecap="round"/>
<circle cx="153.5" cy="79.5" r="2.5" fill="#4BCE3A"/>
<defs>
<filter id="filter0_f_156_8634" x="0" y="0" width="176" height="176" filterUnits="userSpaceOnUse" color-interpolation-filters="sRGB">
<feFlood flood-opacity="0" result="BackgroundImageFix"/>
<feBlend mode="normal" in="SourceGraphic" in2="BackgroundImageFix" result="shape"/>
<feGaussianBlur stdDeviation="1" result="effect1_foregroundBlur_156_8634"/>
</filter>
<filter id="filter1_f_156_8634" x="13.2857" y="13.2852" width="149.429" height="149.428" filterUnits="userSpaceOnUse" color-interpolation-filters="sRGB">
<feFlood flood-opacity="0" result="BackgroundImageFix"/>
<feBlend mode="normal" in="SourceGraphic" in2="BackgroundImageFix" result="shape"/>
<feGaussianBlur stdDeviation="0.5" result="effect1_foregroundBlur_156_8634"/>
</filter>
<linearGradient id="paint0_linear_156_8634" x1="56.25" y1="51.25" x2="103.125" y2="133.125" gradientUnits="userSpaceOnUse">
<stop stop-color="#44DB9B"/>
<stop offset="1" stop-color="#24CE0D"/>
</linearGradient>
</defs>
</svg>
