<svg width="20" height="20" viewBox="0 0 20 20" fill="none" xmlns="http://www.w3.org/2000/svg">
<g clip-path="url(#clip0_197_5199)">
<path d="M14.9999 5.00009H14.9899M14.9999 1H9.99979C9.48777 1 8.97576 1.195 8.58575 1.58601L1.58559 8.58618C1.21064 8.96124 1 9.46987 1 10.0002C1 10.5306 1.21064 11.0392 1.58559 11.4142L8.58575 18.4144C8.96082 18.7894 9.46945 19 9.99979 19C10.5301 19 11.0388 18.7894 11.4138 18.4144L18.414 11.4142C18.6 11.2288 18.7475 11.0084 18.8481 10.7657C18.9486 10.523 19.0003 10.2629 19 10.0002V5.00009C19 3.9392 18.5786 2.92176 17.8284 2.1716C17.0782 1.42144 16.0608 1 14.9999 1Z" stroke="#556374" stroke-width="1.5" stroke-linecap="round" stroke-linejoin="round"/>
</g>
<defs>
<clipPath id="clip0_197_5199">
<rect width="20" height="20" fill="white" transform="matrix(-1 0 0 1 20 0)"/>
</clipPath>
</defs>
</svg>
