<svg width="61" height="60" viewBox="0 0 61 60" fill="none" xmlns="http://www.w3.org/2000/svg">
<path d="M60.5 30C60.5 13.4315 47.0685 0 30.5 0C13.9315 0 0.5 13.4315 0.5 30C0.5 46.5685 13.9315 60 30.5 60C47.0685 60 60.5 46.5685 60.5 30Z" fill="#FFE812"/>
<path d="M30.4921 10.5C18.8999 10.5 9.5 17.9577 9.5 27.1607C9.5 33.111 13.4272 38.3234 19.3415 41.2827L17.2124 48.9387C17.2124 48.9387 17.1729 49.2957 17.4016 49.4306C17.6303 49.5654 17.9063 49.4623 17.9063 49.4623C18.5687 49.3671 25.5556 44.4244 26.7779 43.5676C27.9844 43.7421 29.2383 43.8294 30.5079 43.8294C42.1001 43.8294 51.5 36.3717 51.5 27.1687C51.5 17.9656 42.0843 10.5 30.4921 10.5Z" fill="black"/>
<path d="M18.8841 32.9677C18.2138 32.9677 17.6697 32.444 17.6697 31.8014V24.558H15.7771C15.1226 24.558 14.5942 24.0264 14.5942 23.3679C14.5942 22.7094 15.1305 22.1779 15.7771 22.1779H21.9833C22.6378 22.1779 23.1661 22.7094 23.1661 23.3679C23.1661 24.0264 22.6299 24.558 21.9833 24.558H20.0907V31.8014C20.0907 32.4361 19.5387 32.9677 18.8763 32.9677H18.8841ZM29.5064 32.9518C29.0017 32.9518 28.6153 32.7455 28.497 32.4123L27.8977 30.8256H24.2071L23.6078 32.4123C23.4895 32.7455 23.1031 32.9518 22.5984 32.9518C22.3302 32.9518 22.07 32.8963 21.8256 32.7931C21.4943 32.6344 21.171 32.214 21.5417 31.0636L24.4358 23.3917C24.6408 22.8046 25.2638 22.2017 26.0524 22.1858C26.841 22.1699 27.4718 22.8046 27.669 23.3917L30.5631 31.0636C30.9337 32.214 30.6104 32.6503 30.2792 32.7931C30.0426 32.9042 29.7745 32.9518 29.5064 32.9518ZM27.2589 28.6676L26.0524 25.2085L24.8458 28.6676H27.2589ZM32.5109 32.7931C31.88 32.7931 31.3517 32.2933 31.3517 31.6824V23.3917C31.3517 22.7173 31.9037 22.1699 32.5897 22.1699C33.2758 22.1699 33.8278 22.7253 33.8278 23.3917V30.5479H36.3986C37.0295 30.5479 37.5578 31.0477 37.5578 31.6586C37.5578 32.2695 37.0373 32.7693 36.3986 32.7693L32.5109 32.7931ZM38.0231 31.73V23.3996C38.0231 22.7253 38.5751 22.1779 39.2375 22.1779C39.8999 22.1779 40.4519 22.7332 40.4519 23.3996V26.0178L43.8428 22.6063C44.2161 22.2307 44.9217 22.2637 45.349 22.6935C45.7504 23.0974 45.8548 23.7799 45.4358 24.2089L42.66 26.9857L45.6408 30.9525C46.0413 31.4683 45.9442 32.2717 45.4042 32.6503C44.8719 33.047 44.0899 32.9148 43.7088 32.4123L40.8699 28.6279L40.4519 29.0484V31.7062C40.4519 33.2893 38.0231 33.3503 38.0231 31.73Z" fill="#FFE812"/>
</svg>
