<svg width="20" height="21" viewBox="0 0 20 21" fill="none" xmlns="http://www.w3.org/2000/svg">
<path d="M2.25 3C1.00736 3 0 4.00736 0 5.25V7.75C0 8.99264 1.00736 10 2.25 10H4.75C5.99264 10 7 8.99264 7 7.75V5.25C7 4.00736 5.99264 3 4.75 3H2.25ZM1.5 5.25C1.5 4.83579 1.83579 4.5 2.25 4.5H4.75C5.16421 4.5 5.5 4.83579 5.5 5.25V7.75C5.5 8.16421 5.16421 8.5 4.75 8.5H2.25C1.83579 8.5 1.5 8.16421 1.5 7.75V5.25ZM9.25 4C8.8358 4 8.5 4.33579 8.5 4.75C8.5 5.16421 8.8358 5.5 9.25 5.5H19.25C19.6642 5.5 20 5.16421 20 4.75C20 4.33579 19.6642 4 19.25 4H9.25ZM9.25 7C8.8358 7 8.5 7.33579 8.5 7.75C8.5 8.16421 8.8358 8.5 9.25 8.5H16.25C16.6642 8.5 17 8.16421 17 7.75C17 7.33579 16.6642 7 16.25 7H9.25ZM2.25 12C1.00736 12 0 13.0074 0 14.25V16.75C0 17.9926 1.00736 19 2.25 19H4.75C5.99264 19 7 17.9926 7 16.75V14.25C7 13.0074 5.99264 12 4.75 12H2.25ZM1.5 14.25C1.5 13.8358 1.83579 13.5 2.25 13.5H4.75C5.16421 13.5 5.5 13.8358 5.5 14.25V16.75C5.5 17.1642 5.16421 17.5 4.75 17.5H2.25C1.83579 17.5 1.5 17.1642 1.5 16.75V14.25ZM9.25 13C8.8358 13 8.5 13.3358 8.5 13.75C8.5 14.1642 8.8358 14.5 9.25 14.5H19.25C19.6642 14.5 20 14.1642 20 13.75C20 13.3358 19.6642 13 19.25 13H9.25ZM9.25 16C8.8358 16 8.5 16.3358 8.5 16.75C8.5 17.1642 8.8358 17.5 9.25 17.5H16.25C16.6642 17.5 17 17.1642 17 16.75C17 16.3358 16.6642 16 16.25 16H9.25Z" fill="#556374"/>
</svg>
