<svg width="25" height="24" viewBox="0 0 25 24" fill="none" xmlns="http://www.w3.org/2000/svg">
<path d="M12.3335 2.5C8.3335 2.5 4.3335 3 4.3335 6.5V16C4.3335 17.93 5.9035 19.5 7.8335 19.5L6.3335 20.5V21.5H18.3335V20.5L16.8335 19.5C18.7635 19.5 20.3335 17.93 20.3335 16V6.5C20.3335 3 16.7535 2.5 12.3335 2.5ZM12.3335 4.5C16.0435 4.5 17.4635 4.96 18.0035 5.5H6.7635C7.3635 4.98 8.8135 4.5 12.3335 4.5ZM18.3335 16C18.3335 16.83 17.6635 17.5 16.8335 17.5H7.8335C7.0035 17.5 6.3335 16.83 6.3335 16V12.5H18.3335V16ZM18.3335 10.5H6.3335V7.5H18.3335V10.5Z" fill="#C9C9C9"/>
<path d="M12.3335 16.5C13.1619 16.5 13.8335 15.8284 13.8335 15C13.8335 14.1716 13.1619 13.5 12.3335 13.5C11.5051 13.5 10.8335 14.1716 10.8335 15C10.8335 15.8284 11.5051 16.5 12.3335 16.5Z" fill="#C9C9C9"/>
</svg>
