<svg width="44" height="44" viewBox="0 0 44 44" fill="none" xmlns="http://www.w3.org/2000/svg">
<path id="Union" fill-rule="evenodd" clip-rule="evenodd" d="M23.997 2.00586C23.997 0.90129 23.1016 0.00585938 21.997 0.00585938C20.8924 0.00585938 19.997 0.90129 19.997 2.00586V19.9987H2.00586C0.901287 19.9987 0.00585938 20.8941 0.00585938 21.9987C0.00585938 23.1033 0.901287 23.9987 2.00586 23.9987H19.997V41.9933C19.997 43.0979 20.8924 43.9933 21.997 43.9933C23.1016 43.9933 23.997 43.0979 23.997 41.9933V23.9987H41.9933C43.0979 23.9987 43.9933 23.1033 43.9933 21.9987C43.9933 20.8941 43.0979 19.9987 41.9933 19.9987H23.997V2.00586Z" fill="#2A5591"/>
</svg>
