<svg width="45" height="45" viewBox="0 0 45 45" fill="none" xmlns="http://www.w3.org/2000/svg">
<path d="M23.5148 5.25579C23.2543 4.97088 22.886 4.80859 22.5 4.80859C22.114 4.80859 21.7457 4.97088 21.4852 5.25579L14.1519 13.2766C13.6395 13.8371 13.6784 14.7068 14.2389 15.2192C14.7993 15.7316 15.669 15.6927 16.1815 15.1322L21.125 9.72523V30.0169C21.125 30.7763 21.7406 31.3919 22.5 31.3919C23.2594 31.3919 23.875 30.7763 23.875 30.0169V9.72523L28.8185 15.1322C29.331 15.6927 30.2007 15.7316 30.7611 15.2192C31.3216 14.7068 31.3605 13.8371 30.8481 13.2766L23.5148 5.25579Z" fill="url(#paint0_linear_176_8220)"/>
<path d="M7.375 28.1836C7.375 27.4242 6.75939 26.8086 6 26.8086C5.24061 26.8086 4.625 27.4242 4.625 28.1836V28.2842C4.62496 30.7914 4.62493 32.8124 4.83863 34.4018C5.06049 36.052 5.53513 37.4414 6.63864 38.545C7.74216 39.6485 9.13159 40.1231 10.7818 40.345C12.3712 40.5587 14.3922 40.5586 16.8994 40.5586H28.1006C30.6078 40.5586 32.6288 40.5587 34.2182 40.345C35.8684 40.1231 37.2579 39.6485 38.3614 38.545C39.4649 37.4414 39.9395 36.052 40.1614 34.4018C40.3751 32.8124 40.375 30.7914 40.375 28.2842V28.1836C40.375 27.4242 39.7594 26.8086 39 26.8086C38.2406 26.8086 37.625 27.4242 37.625 28.1836C37.625 30.8152 37.6221 32.6506 37.4359 34.0354C37.255 35.3806 36.9242 36.093 36.4168 36.6004C35.9094 37.1078 35.197 37.4386 33.8518 37.6195C32.467 37.8057 30.6316 37.8086 28 37.8086H17C14.3684 37.8086 12.533 37.8057 11.1482 37.6195C9.80297 37.4386 9.09059 37.1078 8.58319 36.6004C8.07579 36.093 7.74497 35.3806 7.56411 34.0354C7.37792 32.6506 7.375 30.8152 7.375 28.1836Z" fill="url(#paint1_linear_176_8220)"/>
<defs>
<linearGradient id="paint0_linear_176_8220" x1="-6.92257" y1="16.3562" x2="16.1726" y2="52.1062" gradientUnits="userSpaceOnUse">
<stop stop-color="#5B8DEF"/>
<stop offset="1" stop-color="#0063F7"/>
</linearGradient>
<linearGradient id="paint1_linear_176_8220" x1="-6.92257" y1="16.3562" x2="16.1726" y2="52.1062" gradientUnits="userSpaceOnUse">
<stop stop-color="#5B8DEF"/>
<stop offset="1" stop-color="#0063F7"/>
</linearGradient>
</defs>
</svg>
