<svg width="25" height="24" viewBox="0 0 25 24" fill="none" xmlns="http://www.w3.org/2000/svg">
<path fill-rule="evenodd" clip-rule="evenodd" d="M9 2C6.2 2 4 4.2 4 7C4 9.8 6.2 12 9 12C11.8 12 14 9.8 14 7C14 4.2 11.8 2 9 2ZM17.5 21V19C17.5 16.2 15.3 14 12.5 14H5.5C2.7 14 0.5 16.2 0.5 19V21C0.5 21.6 0.9 22 1.5 22C2.1 22 2.5 21.6 2.5 21V19C2.5 17.3 3.8 16 5.5 16H12.5C14.2 16 15.5 17.3 15.5 19V21C15.5 21.6 15.9 22 16.5 22C17.1 22 17.5 21.6 17.5 21ZM6 7C6 8.7 7.3 10 9 10C10.7 10 12 8.7 12 7C12 5.3 10.7 4 9 4C7.3 4 6 5.3 6 7ZM22.8 8.3C23.2 7.9 23.8 7.9 24.2 8.3C24.6 8.7 24.6 9.3 24.2 9.7L20.2 13.7C20 13.9 19.7 14 19.5 14C19.3 14 19 13.9 18.8 13.7L16.8 11.7C16.4 11.3 16.4 10.7 16.8 10.3C17.2 9.9 17.8 9.9 18.2 10.3L19.5 11.6L22.8 8.3Z" fill="black"/>
<mask id="mask0_176_9044" style="mask-type:luminance" maskUnits="userSpaceOnUse" x="0" y="2" width="25" height="20">
<path fill-rule="evenodd" clip-rule="evenodd" d="M9 2C6.2 2 4 4.2 4 7C4 9.8 6.2 12 9 12C11.8 12 14 9.8 14 7C14 4.2 11.8 2 9 2ZM17.5 21V19C17.5 16.2 15.3 14 12.5 14H5.5C2.7 14 0.5 16.2 0.5 19V21C0.5 21.6 0.9 22 1.5 22C2.1 22 2.5 21.6 2.5 21V19C2.5 17.3 3.8 16 5.5 16H12.5C14.2 16 15.5 17.3 15.5 19V21C15.5 21.6 15.9 22 16.5 22C17.1 22 17.5 21.6 17.5 21ZM6 7C6 8.7 7.3 10 9 10C10.7 10 12 8.7 12 7C12 5.3 10.7 4 9 4C7.3 4 6 5.3 6 7ZM22.8 8.3C23.2 7.9 23.8 7.9 24.2 8.3C24.6 8.7 24.6 9.3 24.2 9.7L20.2 13.7C20 13.9 19.7 14 19.5 14C19.3 14 19 13.9 18.8 13.7L16.8 11.7C16.4 11.3 16.4 10.7 16.8 10.3C17.2 9.9 17.8 9.9 18.2 10.3L19.5 11.6L22.8 8.3Z" fill="white"/>
</mask>
<g mask="url(#mask0_176_9044)">
<rect x="0.5" width="24" height="24" fill="white"/>
</g>
</svg>
