<svg width="25" height="24" viewBox="0 0 25 24" fill="none" xmlns="http://www.w3.org/2000/svg">
<path fill-rule="evenodd" clip-rule="evenodd" d="M7.5 7C7.5 4.2 9.7 2 12.5 2C15.3 2 17.5 4.2 17.5 7C17.5 9.8 15.3 12 12.5 12C9.7 12 7.5 9.8 7.5 7ZM21.5 19V21C21.5 21.6 21.1 22 20.5 22C19.9 22 19.5 21.6 19.5 21V19C19.5 17.3 18.2 16 16.5 16H8.5C6.8 16 5.5 17.3 5.5 19V21C5.5 21.6 5.1 22 4.5 22C3.9 22 3.5 21.6 3.5 21V19C3.5 16.2 5.7 14 8.5 14H16.5C19.3 14 21.5 16.2 21.5 19ZM12.5 10C10.8 10 9.5 8.7 9.5 7C9.5 5.3 10.8 4 12.5 4C14.2 4 15.5 5.3 15.5 7C15.5 8.7 14.2 10 12.5 10Z" fill="black"/>
<mask id="mask0_176_9040" style="mask-type:luminance" maskUnits="userSpaceOnUse" x="3" y="2" width="19" height="20">
<path fill-rule="evenodd" clip-rule="evenodd" d="M7.5 7C7.5 4.2 9.7 2 12.5 2C15.3 2 17.5 4.2 17.5 7C17.5 9.8 15.3 12 12.5 12C9.7 12 7.5 9.8 7.5 7ZM21.5 19V21C21.5 21.6 21.1 22 20.5 22C19.9 22 19.5 21.6 19.5 21V19C19.5 17.3 18.2 16 16.5 16H8.5C6.8 16 5.5 17.3 5.5 19V21C5.5 21.6 5.1 22 4.5 22C3.9 22 3.5 21.6 3.5 21V19C3.5 16.2 5.7 14 8.5 14H16.5C19.3 14 21.5 16.2 21.5 19ZM12.5 10C10.8 10 9.5 8.7 9.5 7C9.5 5.3 10.8 4 12.5 4C14.2 4 15.5 5.3 15.5 7C15.5 8.7 14.2 10 12.5 10Z" fill="white"/>
</mask>
<g mask="url(#mask0_176_9040)">
<rect x="0.5" width="24" height="24" fill="white"/>
</g>
</svg>
