<svg width="24" height="24" viewBox="0 0 24 24" fill="none" xmlns="http://www.w3.org/2000/svg">
<path fill-rule="evenodd" clip-rule="evenodd" d="M19.052 3.91427C18.6325 3.05086 17.7418 2.52896 16.7952 2.59192C16.6673 2.60043 16.5216 2.62823 16.2626 2.69344L15.7977 6.64892L19.0478 5.76512C19.1699 5.73192 19.2425 5.71206 19.2967 5.69527C19.331 5.68465 19.3456 5.67892 19.3491 5.67748C19.4419 5.6301 19.4982 5.53127 19.4922 5.42601C19.4917 5.42219 19.4893 5.40651 19.4812 5.37104C19.4684 5.315 19.449 5.24121 19.4163 5.11732C19.2186 4.3684 19.1456 4.10686 19.052 3.91427ZM14.1712 7.09125L14.6365 3.13161L9.71872 4.46894L9.25338 8.42858L14.1712 7.09125ZM7.62681 8.8709L8.09214 4.91129C7.24043 5.14322 6.63164 5.31275 6.16304 5.48752C5.66959 5.67157 5.4049 5.83627 5.222 6.02189C4.9309 6.31732 4.72155 6.68532 4.615 7.08889C4.54806 7.34245 4.53986 7.65744 4.62953 8.18317C4.69474 8.56546 4.80368 9.01845 4.95348 9.59788L7.62681 8.8709ZM3.61615 10.6686C3.38077 9.77694 3.19129 9.05391 3.08893 8.45383C2.98068 7.81922 2.95485 7.24602 3.10476 6.6782C3.28235 6.00558 3.63126 5.39226 4.11643 4.89987C4.52601 4.48419 5.02805 4.2203 5.62371 3.99814C6.20163 3.78258 6.93589 3.58292 7.84631 3.33535L8.66011 3.11405C8.7513 3.06811 8.85204 3.03987 8.95748 3.03319L15.1818 1.34056C15.1894 1.3385 15.197 1.33644 15.2045 1.3344C15.2958 1.28839 15.3967 1.26013 15.5023 1.2535C15.9963 1.12022 16.3579 1.03082 16.693 1.00854C18.2705 0.903599 19.7551 1.77344 20.4543 3.21246C20.6252 3.56419 20.7379 3.99131 20.9031 4.61795C20.9108 4.64708 20.9186 4.67663 20.9265 4.70663C20.9308 4.72294 20.9352 4.73933 20.9396 4.75577C20.9889 4.94158 21.0403 5.13494 21.0522 5.32014C21.1005 6.0673 20.7005 6.77038 20.0388 7.10155C19.8748 7.18364 19.6841 7.23518 19.5009 7.28471C19.4847 7.28909 19.4685 7.29346 19.4524 7.29783L10.3364 9.77682L16.9602 9.77682C17.8967 9.77679 18.6777 9.77676 19.2976 9.86135C19.952 9.95064 20.5428 10.1471 21.0176 10.6289C21.4923 11.1107 21.6859 11.7103 21.7738 12.3744C21.8572 13.0036 21.8572 13.7962 21.8571 14.7466V15.9175C21.8572 17.3642 21.8572 18.5303 21.7357 19.4475C21.6095 20.3996 21.3397 21.2014 20.7123 21.8381C20.0849 22.4748 19.2949 22.7487 18.3567 22.8767C17.453 23 16.304 23 14.8785 23H10.5948C9.16927 23 8.02028 23 7.1166 22.8767C6.17838 22.7487 5.38841 22.4748 4.76101 21.8381C4.13361 21.2014 3.86375 20.3996 3.73761 19.4475C3.61611 18.5303 3.61613 17.3642 3.61615 15.9175L3.61615 10.6686ZM5.17967 11.3636V15.8595C5.17967 17.3779 5.18133 18.437 5.28718 19.236C5.39001 20.0123 5.5781 20.4233 5.86658 20.7161C6.15506 21.0089 6.56009 21.1997 7.32493 21.3041C8.11227 21.4115 9.15577 21.4132 10.652 21.4132H14.8213C16.3175 21.4132 17.361 21.4115 18.1484 21.3041C18.9132 21.1997 19.3182 21.0089 19.6067 20.7161C19.8952 20.4233 20.0833 20.0123 20.1861 19.236C20.292 18.437 20.2936 17.3779 20.2936 15.8595V14.8016C20.2936 13.7818 20.292 13.0968 20.2243 12.5858C20.1596 12.0977 20.0478 11.8888 19.912 11.7509C19.7762 11.613 19.5703 11.4996 19.0893 11.434C18.5858 11.3653 17.9108 11.3636 16.906 11.3636H5.17967ZM13.986 14.3578C14.0022 14.3696 14.0185 14.3814 14.0347 14.3932C14.0493 14.4038 14.0639 14.4144 14.0784 14.425C14.4546 14.6986 14.8078 14.9555 15.0587 15.2058C15.3403 15.4865 15.6031 15.8651 15.6031 16.3884C15.6031 16.9118 15.3403 17.2903 15.0587 17.5711C14.8078 17.8214 14.4546 18.0782 14.0784 18.3518L14.0347 18.3836C14.0185 18.3954 14.0022 18.4073 13.986 18.4191C13.6089 18.6936 13.2493 18.9553 12.9417 19.1093C12.6134 19.2737 12.0733 19.4491 11.5564 19.0788C11.1076 18.7573 11.0002 18.2379 10.9572 17.8744C10.9125 17.4957 10.9125 17.0014 10.9125 16.4377V16.3391C10.9125 15.7754 10.9125 15.2811 10.9572 14.9024C11.0002 14.5389 11.1076 14.0195 11.5564 13.698C12.0733 13.3277 12.6134 13.5031 12.9417 13.6675C13.2493 13.8215 13.6089 14.0832 13.986 14.3578ZM12.496 15.2375C12.477 15.5016 12.4761 15.8647 12.4761 16.3884C12.4761 16.9121 12.477 17.2752 12.496 17.5393C12.651 17.4367 12.8512 17.2923 13.1238 17.094C13.5594 16.777 13.8095 16.5922 13.9629 16.4393C13.983 16.4193 13.9987 16.4024 14.011 16.3884C13.9987 16.3744 13.983 16.3576 13.9629 16.3375C13.8095 16.1846 13.5594 15.9998 13.1238 15.6828C12.8512 15.4846 12.651 15.3401 12.496 15.2375Z" fill="#1C1C28"/>
</svg>
